<svg width="763" height="125" viewBox="0 0 763 125" fill="none" xmlns="http://www.w3.org/2000/svg">
<path d="M0.612539 5.71024H64.1005V24.7822H23.2685V41.5502H53.0925V59.3423H23.2685V95.1823H0.612539V5.71024ZM64.7375 33.7422H86.4975V41.4222C88.8869 38.6916 92.2575 36.6009 96.6095 35.1502C100.962 33.6142 105.783 32.8462 111.074 32.8462V50.1262C105.442 50.1262 100.45 50.9369 96.0975 52.5583C91.8309 54.1796 88.8869 56.6116 87.2655 59.8542V95.1823H64.7375V33.7422ZM129.52 25.5502C126.106 25.5502 123.248 24.4409 120.944 22.2222C118.64 20.0036 117.488 17.1876 117.488 13.7742C117.488 10.4462 118.64 7.67292 120.944 5.45425C123.248 3.15025 126.106 1.99825 129.52 1.99825C132.848 1.99825 135.664 3.15025 137.968 5.45425C140.357 7.67292 141.552 10.4462 141.552 13.7742C141.552 17.1022 140.357 19.9182 137.968 22.2222C135.664 24.4409 132.848 25.5502 129.52 25.5502ZM118.256 33.7422H140.784V95.1823H118.256V33.7422ZM183.193 97.1023C176.793 97.1023 171.118 95.7796 166.169 93.1343C161.219 90.4036 157.379 86.6063 154.649 81.7423C151.918 76.7929 150.553 71.0756 150.553 64.5903C150.553 58.1902 151.918 52.5156 154.649 47.5662C157.379 42.5316 161.177 38.6489 166.041 35.9182C170.99 33.1876 176.707 31.8222 183.193 31.8222C187.459 31.8222 191.385 32.4196 194.969 33.6142C198.553 34.8089 201.625 36.5156 204.185 38.7342V0.590248H226.713V95.1823H204.953V89.0383C199.235 94.4143 191.982 97.1023 183.193 97.1023ZM189.081 79.6943C192.494 79.6943 195.566 78.8409 198.297 77.1343C201.027 75.3423 202.99 72.9529 204.185 69.9662V59.0863C202.99 56.0996 201.027 53.7529 198.297 52.0462C195.566 50.2542 192.494 49.3582 189.081 49.3582C184.473 49.3582 180.761 50.7236 177.945 53.4543C175.129 56.1849 173.721 59.8969 173.721 64.5903C173.721 69.2836 175.129 72.9956 177.945 75.7262C180.761 78.3716 184.473 79.6943 189.081 79.6943ZM259.531 97.1023C251.851 97.1023 245.621 95.2676 240.843 91.5983C236.149 87.8436 233.803 82.6383 233.803 75.9823C233.803 69.0703 236.064 63.7796 240.587 60.1102C245.195 56.3556 251.765 54.4782 260.299 54.4782C263.627 54.4782 266.955 54.8622 270.283 55.6302C273.611 56.3129 276.469 57.2516 278.859 58.4463V57.1662C278.859 50.5956 273.483 47.3102 262.731 47.3102C255.221 47.3102 248.352 48.7609 242.123 51.6623V36.1742C244.853 34.8942 248.437 33.8702 252.875 33.1022C257.312 32.2489 261.92 31.8222 266.699 31.8222C278.133 31.8222 286.752 34.1262 292.555 38.7342C298.443 43.2569 301.387 49.6142 301.387 57.8062V95.1823H280.267V89.9343C277.963 92.1529 275.061 93.9023 271.563 95.1823C268.064 96.4623 264.053 97.1023 259.531 97.1023ZM266.187 83.2783C268.832 83.2783 271.307 82.7663 273.611 81.7423C275.915 80.6329 277.664 79.2249 278.859 77.5182V72.1423C275.189 69.6676 271.008 68.4303 266.315 68.4303C263.328 68.4303 261.024 69.0703 259.403 70.3503C257.781 71.6303 256.971 73.5076 256.971 75.9823C256.971 78.2863 257.739 80.0783 259.275 81.3583C260.896 82.6383 263.2 83.2783 266.187 83.2783ZM325.432 120.526C322.701 120.526 319.842 120.313 316.856 119.886C313.869 119.545 311.65 119.033 310.2 118.35V101.582C312.674 102.606 315.49 103.118 318.648 103.118C321.464 103.118 323.64 102.478 325.176 101.198C326.797 100.004 328.077 98.0836 329.016 95.4383L330.552 91.3423L303.928 33.7422H326.456L342.456 73.6782L357.56 33.7422H380.088L354.744 97.9983C351.757 105.678 347.917 111.353 343.224 115.022C338.616 118.692 332.685 120.526 325.432 120.526ZM429.988 5.71024H452.388L485.284 58.9582V5.71024H507.94V95.1823H485.668L452.644 41.8062V95.1823H429.988V5.71024ZM531.52 25.5502C528.106 25.5502 525.248 24.4409 522.944 22.2222C520.64 20.0036 519.488 17.1876 519.488 13.7742C519.488 10.4462 520.64 7.67292 522.944 5.45425C525.248 3.15025 528.106 1.99825 531.52 1.99825C534.848 1.99825 537.664 3.15025 539.968 5.45425C542.357 7.67292 543.552 10.4462 543.552 13.7742C543.552 17.1022 542.357 19.9182 539.968 22.2222C537.664 24.4409 534.848 25.5502 531.52 25.5502ZM520.256 33.7422H542.784V95.1823H520.256V33.7422ZM588.521 124.622C584.425 124.622 580.286 124.238 576.105 123.47C572.009 122.702 568.467 121.678 565.481 120.398V104.782C572.222 107.684 579.902 109.134 588.521 109.134C594.75 109.134 599.23 107.854 601.961 105.294C604.777 102.734 606.185 98.9796 606.185 94.0303V90.3183C603.71 92.4516 600.638 94.1156 596.969 95.3103C593.385 96.5049 589.545 97.1023 585.449 97.1023C578.963 97.1023 573.246 95.7369 568.297 93.0063C563.347 90.2756 559.465 86.4356 556.649 81.4862C553.918 76.5369 552.553 70.8623 552.553 64.4622C552.553 57.9769 553.918 52.2596 556.649 47.3102C559.379 42.3609 563.219 38.5636 568.169 35.9182C573.118 33.1876 578.793 31.8222 585.193 31.8222C593.982 31.8222 601.235 34.5102 606.953 39.8862V33.7422H628.713V90.9583C628.713 101.625 625.427 109.902 618.857 115.79C612.371 121.678 602.259 124.622 588.521 124.622ZM591.081 79.6943C594.579 79.6943 597.694 78.7983 600.425 77.0063C603.155 75.2143 605.075 72.8249 606.185 69.8382V59.0863C604.99 56.0996 603.027 53.7529 600.297 52.0462C597.566 50.2542 594.494 49.3582 591.081 49.3582C586.473 49.3582 582.761 50.7236 579.945 53.4543C577.129 56.0996 575.721 59.7262 575.721 64.3342C575.721 69.0276 577.129 72.7823 579.945 75.5982C582.761 78.3289 586.473 79.6943 591.081 79.6943ZM640.238 0.590248H662.766V40.0142C665.496 37.2836 668.611 35.2356 672.11 33.8702C675.694 32.5049 679.448 31.8222 683.374 31.8222C691.992 31.8222 698.35 34.0836 702.446 38.6062C706.627 43.0436 708.718 49.1022 708.718 56.7822V95.1823H686.19V59.7262C686.19 52.8142 683.032 49.3582 676.718 49.3582C673.816 49.3582 671.171 50.0409 668.782 51.4062C666.392 52.6862 664.387 54.6916 662.766 57.4222V95.1823H640.238V0.590248ZM746.237 97.1023C738.642 97.1023 732.882 95.0116 728.957 90.8303C725.117 86.5636 723.197 80.7609 723.197 73.4223V49.3582H714.493V33.7422H723.197V15.3102H745.725V33.7422H759.805V49.3582H745.725V70.3503C745.725 73.6783 746.322 76.0676 747.517 77.5182C748.797 78.9689 751.015 79.6943 754.173 79.6943C756.989 79.6943 759.805 78.9262 762.621 77.3902V94.1583C760.402 95.1823 758.013 95.9076 755.453 96.3343C752.978 96.8463 749.906 97.1023 746.237 97.1023Z" fill="url(#paint0_linear_72_10)"/>
<defs>
<linearGradient id="paint0_linear_72_10" x1="380.5" y1="-44.8177" x2="380.5" y2="132.818" gradientUnits="userSpaceOnUse">
<stop stop-color="#CE504B"/>
<stop offset="1" stop-color="#980600"/>
</linearGradient>
</defs>
</svg>
