<svg width="779" height="128" viewBox="0 0 779 128" fill="none" xmlns="http://www.w3.org/2000/svg">
<mask id="mask0_75_8" style="mask-type:luminance" maskUnits="userSpaceOnUse" x="9" y="0" width="767" height="123">
<path d="M775.705 0H9.70508V123H775.705V0Z" fill="white"/>
<path d="M59.6733 97.92C49.9453 97.92 41.3693 96.043 33.9453 92.288C26.6066 88.533 20.9319 83.157 16.9213 76.16C12.9106 69.077 10.9053 60.8 10.9053 51.328C10.9053 41.856 12.9106 33.6213 16.9213 26.624C20.9319 19.5413 26.6066 14.1227 33.9453 10.368C41.3693 6.52802 49.9453 4.60802 59.6733 4.60802C66.0733 4.60802 71.7906 5.24802 76.8253 6.52802C81.8599 7.80802 86.5106 9.81332 90.7773 12.544V34.048C87.0226 31.0613 82.7559 28.8853 77.9773 27.52C73.2839 26.1547 67.8653 25.472 61.7213 25.472C52.9319 25.472 46.1479 27.776 41.3693 32.384C36.5906 36.9067 34.2013 43.2213 34.2013 51.328C34.2013 59.435 36.5906 65.792 41.3693 70.4C46.2333 75.008 53.0173 77.312 61.7213 77.312C67.8653 77.312 73.3693 76.587 78.2333 75.136C83.0973 73.685 87.6199 71.381 91.8013 68.224V89.6C83.6946 95.147 72.9853 97.92 59.6733 97.92ZM97.4653 34.56H119.225V42.24C121.614 39.5093 124.985 37.4187 129.337 35.968C133.689 34.432 138.51 33.664 143.801 33.664V50.944C138.169 50.944 133.177 51.7547 128.825 53.376C124.558 54.9973 121.614 57.429 119.993 60.672V96H97.4653V34.56ZM167.633 97.92C159.953 97.92 153.724 96.085 148.945 92.416C144.252 88.661 141.905 83.456 141.905 76.8C141.905 69.888 144.166 64.597 148.689 60.928C153.297 57.173 159.868 55.296 168.401 55.296C171.729 55.296 175.057 55.68 178.385 56.448C181.713 57.131 184.572 58.069 186.961 59.264V57.984C186.961 51.4133 181.585 48.128 170.833 48.128C163.324 48.128 156.454 49.5787 150.225 52.48V36.992C152.956 35.712 156.54 34.688 160.977 33.92C165.414 33.0667 170.022 32.64 174.801 32.64C186.236 32.64 194.854 34.944 200.657 39.552C206.545 44.0747 209.489 50.432 209.489 58.624V96H188.369V90.752C186.065 92.971 183.164 94.72 179.665 96C176.166 97.28 172.156 97.92 167.633 97.92ZM174.289 84.096C176.934 84.096 179.409 83.584 181.713 82.56C184.017 81.451 185.766 80.043 186.961 78.336V72.96C183.292 70.485 179.11 69.248 174.417 69.248C171.43 69.248 169.126 69.888 167.505 71.168C165.884 72.448 165.073 74.325 165.073 76.8C165.073 79.104 165.841 80.896 167.377 82.176C168.998 83.456 171.302 84.096 174.289 84.096ZM217.78 83.712L246.964 50.176H218.548V34.56H276.66V46.848L247.732 80.384H277.684V96H217.78V83.712ZM301.034 121.344C298.303 121.344 295.445 121.131 292.458 120.704C289.471 120.363 287.253 119.851 285.802 119.168V102.4C288.277 103.424 291.093 103.936 294.25 103.936C297.066 103.936 299.242 103.296 300.778 102.016C302.399 100.821 303.679 98.901 304.618 96.256L306.154 92.16L279.53 34.56H302.058L318.058 74.496L333.162 34.56H355.69L330.346 98.816C327.359 106.496 323.519 112.171 318.826 115.84C314.218 119.509 308.287 121.344 301.034 121.344ZM451.798 97.92C442.07 97.92 433.494 96.043 426.07 92.288C418.731 88.533 413.057 83.157 409.046 76.16C405.035 69.077 403.03 60.8 403.03 51.328C403.03 41.856 405.035 33.6213 409.046 26.624C413.057 19.5413 418.731 14.1227 426.07 10.368C433.494 6.52802 442.07 4.60802 451.798 4.60802C458.198 4.60802 463.915 5.24802 468.95 6.52802C473.985 7.80802 478.635 9.81332 482.902 12.544V34.048C479.147 31.0613 474.881 28.8853 470.102 27.52C465.409 26.1547 459.99 25.472 453.846 25.472C445.057 25.472 438.273 27.776 433.494 32.384C428.715 36.9067 426.326 43.2213 426.326 51.328C426.326 59.435 428.715 65.792 433.494 70.4C438.358 75.008 445.142 77.312 453.846 77.312C459.99 77.312 465.494 76.587 470.358 75.136C475.222 73.685 479.745 71.381 483.926 68.224V89.6C475.819 95.147 465.11 97.92 451.798 97.92ZM504.784 121.344C502.053 121.344 499.195 121.131 496.208 120.704C493.221 120.363 491.003 119.851 489.552 119.168V102.4C492.027 103.424 494.843 103.936 498 103.936C500.816 103.936 502.992 103.296 504.528 102.016C506.149 100.821 507.429 98.901 508.368 96.256L509.904 92.16L483.28 34.56H505.808L521.808 74.496L536.912 34.56H559.44L534.096 98.816C531.109 106.496 527.269 112.171 522.576 115.84C517.968 119.509 512.037 121.344 504.784 121.344ZM609.36 97.92C600.571 97.92 593.317 95.232 587.6 89.856V96H565.84V1.40802H588.368V39.552C590.843 37.4187 593.915 35.7547 597.584 34.56C601.339 33.28 605.264 32.64 609.36 32.64C615.845 32.64 621.52 34.0053 626.384 36.736C631.333 39.4667 635.173 43.3493 637.904 48.384C640.635 53.3333 642 59.008 642 65.408C642 71.893 640.635 77.611 637.904 82.56C635.173 87.424 631.333 91.221 626.384 93.952C621.435 96.597 615.76 97.92 609.36 97.92ZM603.472 80.512C608.08 80.512 611.792 79.189 614.608 76.544C617.424 73.813 618.832 70.101 618.832 65.408C618.832 60.715 617.424 57.003 614.608 54.272C611.792 51.5413 608.08 50.176 603.472 50.176C600.059 50.176 596.987 51.072 594.256 52.864C591.525 54.5707 589.563 56.917 588.368 59.904V70.784C589.563 73.771 591.525 76.16 594.256 77.952C596.987 79.659 600.059 80.512 603.472 80.512ZM687.061 97.92C675.029 97.92 665.557 95.104 658.645 89.472C651.818 83.84 648.405 75.861 648.405 65.536C648.405 55.3813 651.434 47.36 657.493 41.472C663.637 35.584 672.469 32.64 683.989 32.64C691.328 32.64 697.6 34.048 702.805 36.864C708.096 39.5947 712.064 43.392 714.709 48.256C717.44 53.0347 718.805 58.453 718.805 64.512V72.832H669.781C670.634 76.245 672.768 78.72 676.181 80.256C679.594 81.792 684.245 82.56 690.133 82.56C694.144 82.56 698.24 82.219 702.421 81.536C706.688 80.853 710.357 79.915 713.429 78.72V93.568C710.272 94.848 706.304 95.872 701.525 96.64C696.832 97.493 692.01 97.92 687.061 97.92ZM697.557 58.752C697.216 55.424 695.85 52.8213 693.461 50.944C691.072 49.0667 687.786 48.128 683.605 48.128C679.509 48.128 676.266 49.1093 673.877 51.072C671.488 52.9493 670.122 55.5093 669.781 58.752H697.557ZM727.715 34.56H749.475V42.24C751.864 39.5093 755.235 37.4187 759.587 35.968C763.939 34.432 768.76 33.664 774.051 33.664V50.944C768.419 50.944 763.427 51.7547 759.075 53.376C754.808 54.9973 751.864 57.429 750.243 60.672V96H727.715V34.56Z" fill="black"/>
</mask>
<g mask="url(#mask0_75_8)">
<path d="M33.9453 92.288L33.4898 93.178L33.494 93.18L33.9453 92.288ZM16.9213 76.16L16.0511 76.653L16.0537 76.657L16.9213 76.16ZM16.9213 26.624L17.7889 27.1213L17.7915 27.1167L16.9213 26.624ZM33.9453 10.368L34.4008 11.2583L34.4047 11.2562L33.9453 10.368ZM90.7773 12.544H91.7773V11.9967L91.3163 11.7017L90.7773 12.544ZM90.7773 34.048L90.1548 34.8306L91.7773 36.1212V34.048H90.7773ZM77.9773 27.52L77.6979 28.4802L77.7026 28.4815L77.9773 27.52ZM41.3693 32.384L42.0567 33.1103L42.0634 33.1038L41.3693 32.384ZM41.3693 70.4L40.6751 71.12L40.6815 71.126L41.3693 70.4ZM91.8013 68.224H92.8013V66.216L91.1987 67.426L91.8013 68.224ZM91.8013 89.6L92.366 90.425L92.8013 90.127V89.6H91.8013ZM59.6733 96.92C50.0756 96.92 41.6588 95.068 34.3966 91.396L33.494 93.18C41.0798 97.017 49.815 98.92 59.6733 98.92V96.92ZM34.4008 91.398C27.2306 87.729 21.7009 82.488 17.7889 75.663L16.0537 76.657C20.163 83.827 25.9826 89.337 33.4898 93.178L34.4008 91.398ZM17.7915 75.667C13.8789 68.758 11.9053 60.656 11.9053 51.328H9.90527C9.90527 60.944 11.9423 69.397 16.0511 76.653L17.7915 75.667ZM11.9053 51.328C11.9053 41.9998 13.879 33.9427 17.7889 27.1213L16.0537 26.1267C11.9422 33.3 9.90527 41.7122 9.90527 51.328H11.9053ZM17.7915 27.1167C21.7044 20.2066 27.2339 14.9251 34.4008 11.2583L33.4898 9.47772C25.9794 13.3203 20.1595 18.8761 16.0511 26.1312L17.7915 27.1167ZM34.4047 11.2562C41.6651 7.50082 50.0789 5.60802 59.6733 5.60802V3.60802C49.8116 3.60802 41.0735 5.55522 33.4859 9.47982L34.4047 11.2562ZM59.6733 5.60802C66.0086 5.60802 71.6408 6.24172 76.5789 7.49722L77.0717 5.55882C71.9404 4.25432 66.138 3.60802 59.6733 3.60802V5.60802ZM76.5789 7.49722C81.5125 8.75152 86.064 10.7148 90.2382 13.3863L91.3163 11.7017C86.9572 8.91192 82.2074 6.86452 77.0717 5.55882L76.5789 7.49722ZM89.7773 12.544V34.048H91.7773V12.544H89.7773ZM91.3998 33.2654C87.5384 30.1938 83.1526 27.9586 78.252 26.5585L77.7026 28.4815C82.3593 29.812 86.5068 31.9288 90.1548 34.8306L91.3998 33.2654ZM78.2566 26.5598C73.4527 25.1623 67.9367 24.472 61.7213 24.472V26.472C67.7939 26.472 73.1151 27.147 77.6979 28.4802L78.2566 26.5598ZM61.7213 24.472C52.7594 24.472 45.6943 26.8243 40.6751 31.6642L42.0634 33.1038C46.6016 28.7277 53.1045 26.472 61.7213 26.472V24.472ZM40.6819 31.6577C35.659 36.4115 33.2013 43.0148 33.2013 51.328H35.2013C35.2013 43.4278 37.5222 37.4018 42.0567 33.1103L40.6819 31.6577ZM33.2013 51.328C33.2013 59.642 35.6591 66.283 40.6751 71.12L42.0634 69.68C37.5221 65.301 35.2013 59.227 35.2013 51.328H33.2013ZM40.6815 71.126C45.7817 75.958 52.8405 78.312 61.7213 78.312V76.312C53.194 76.312 46.6848 74.058 42.057 69.674L40.6815 71.126ZM61.7213 78.312C67.9425 78.312 73.5452 77.578 78.5191 76.094L77.9475 74.178C73.1933 75.596 67.7881 76.312 61.7213 76.312V78.312ZM78.5191 76.094C83.5011 74.608 88.1305 72.249 92.4039 69.022L91.1987 67.426C87.1094 70.514 82.6935 72.762 77.9475 74.178L78.5191 76.094ZM90.8013 68.224V89.6H92.8013V68.224H90.8013ZM91.2366 88.775C83.3459 94.174 72.8537 96.92 59.6733 96.92V98.92C73.1169 98.92 84.0433 96.12 92.366 90.425L91.2366 88.775ZM97.4653 34.56V33.56H96.4653V34.56H97.4653ZM119.225 34.56H120.225V33.56H119.225V34.56ZM119.225 42.24H118.225V44.9014L119.978 42.8985L119.225 42.24ZM129.337 35.968L129.653 36.9167L129.662 36.9139L129.67 36.911L129.337 35.968ZM143.801 33.664H144.801V32.664H143.801V33.664ZM143.801 50.944V51.944H144.801V50.944H143.801ZM128.825 53.376L128.476 52.4389L128.47 52.4412L128.825 53.376ZM119.993 60.672L119.099 60.225L118.993 60.436V60.672H119.993ZM119.993 96V97H120.993V96H119.993ZM97.4653 96H96.4653V97H97.4653V96ZM97.4653 35.56H119.225V33.56H97.4653V35.56ZM118.225 34.56V42.24H120.225V34.56H118.225ZM119.978 42.8985C122.223 40.3326 125.426 38.3258 129.653 36.9167L129.021 35.0193C124.544 36.5116 121.006 38.686 118.473 41.5815L119.978 42.8985ZM129.67 36.911C133.901 35.4178 138.607 34.664 143.801 34.664V32.664C138.413 32.664 133.478 33.4462 129.004 35.025L129.67 36.911ZM142.801 33.664V50.944H144.801V33.664H142.801ZM143.801 49.944C138.074 49.944 132.961 50.7682 128.476 52.4389L129.174 54.3131C133.394 52.7412 138.264 51.944 143.801 51.944V49.944ZM128.47 52.4412C124.032 54.1277 120.859 56.704 119.099 60.225L120.888 61.119C122.37 58.155 125.085 55.867 129.18 54.3108L128.47 52.4412ZM118.993 60.672V96H120.993V60.672H118.993ZM119.993 95H97.4653V97H119.993V95ZM98.4653 96V34.56H96.4653V96H98.4653ZM148.945 92.416L148.32 93.197L148.328 93.203L148.336 93.209L148.945 92.416ZM148.689 60.928L149.319 61.705L149.321 61.703L148.689 60.928ZM178.385 56.448L178.16 57.422L178.172 57.425L178.184 57.428L178.385 56.448ZM186.961 59.264L186.514 60.158L187.961 60.882V59.264H186.961ZM150.225 52.48H149.225V54.0489L150.647 53.3865L150.225 52.48ZM150.225 36.992L149.801 36.0865L149.225 36.3563V36.992H150.225ZM160.977 33.92L161.148 34.9053L161.157 34.9038L161.166 34.902L160.977 33.92ZM200.657 39.552L200.035 40.3351L200.042 40.3401L200.048 40.345L200.657 39.552ZM209.489 96V97H210.489V96H209.489ZM188.369 96H187.369V97H188.369V96ZM188.369 90.752H189.369V88.401L187.675 90.032L188.369 90.752ZM181.713 82.56L182.119 83.474L182.133 83.468L182.147 83.461L181.713 82.56ZM186.961 78.336L187.78 78.909L187.961 78.651V78.336H186.961ZM186.961 72.96H187.961V72.428L187.52 72.131L186.961 72.96ZM167.377 82.176L166.737 82.944L166.747 82.953L166.757 82.961L167.377 82.176ZM167.633 96.92C160.112 96.92 154.115 95.125 149.554 91.623L148.336 93.209C153.332 97.046 159.794 98.92 167.633 98.92V96.92ZM149.57 91.635C145.141 88.092 142.905 83.189 142.905 76.8H140.905C140.905 83.723 143.362 89.23 148.32 93.197L149.57 91.635ZM142.905 76.8C142.905 70.127 145.075 65.148 149.319 61.705L148.059 60.151C143.258 64.047 140.905 69.649 140.905 76.8H142.905ZM149.321 61.703C153.687 58.146 160 56.296 168.401 56.296V54.296C159.736 54.296 152.907 56.201 148.057 60.153L149.321 61.703ZM168.401 56.296C171.651 56.296 174.904 56.671 178.16 57.422L178.61 55.4736C175.21 54.689 171.807 54.296 168.401 54.296V56.296ZM178.184 57.428C181.449 58.097 184.22 59.012 186.514 60.158L187.408 58.37C184.923 57.127 181.978 56.164 178.586 55.4684L178.184 57.428ZM187.961 59.264V57.984H185.961V59.264H187.961ZM187.961 57.984C187.961 54.3685 186.451 51.5723 183.451 49.7387C180.53 47.9541 176.278 47.128 170.833 47.128V49.128C176.14 49.128 179.952 49.9446 182.408 51.4453C184.783 52.897 185.961 55.0288 185.961 57.984H187.961ZM170.833 47.128C163.192 47.128 156.176 48.605 149.803 51.5735L150.647 53.3865C156.733 50.5523 163.456 49.128 170.833 49.128V47.128ZM151.225 52.48V36.992H149.225V52.48H151.225ZM150.65 37.8975C153.27 36.6689 156.759 35.6648 161.148 34.9053L160.807 32.9346C156.32 33.7112 152.641 34.7551 149.801 36.0865L150.65 37.8975ZM161.166 34.902C165.538 34.0613 170.082 33.64 174.801 33.64V31.64C169.963 31.64 165.291 32.072 160.788 32.938L161.166 34.902ZM174.801 33.64C186.126 33.64 194.483 35.9258 200.035 40.3351L201.279 38.7689C195.226 33.9622 186.345 31.64 174.801 31.64V33.64ZM200.048 40.345C205.662 44.6571 208.489 50.7058 208.489 58.624H210.489C210.489 50.1582 207.428 43.4923 201.266 38.7589L200.048 40.345ZM208.489 58.624V96H210.489V58.624H208.489ZM209.489 95H188.369V97H209.489V95ZM189.369 96V90.752H187.369V96H189.369ZM187.675 90.032C185.487 92.139 182.711 93.821 179.321 95.061L180.009 96.939C183.617 95.619 186.643 93.802 189.063 91.472L187.675 90.032ZM179.321 95.061C175.954 96.293 172.063 96.92 167.633 96.92V98.92C172.249 98.92 176.379 98.267 180.009 96.939L179.321 95.061ZM174.289 85.096C177.067 85.096 179.681 84.557 182.119 83.474L181.307 81.646C179.137 82.611 176.802 83.096 174.289 83.096V85.096ZM182.147 83.461C184.57 82.294 186.467 80.785 187.78 78.909L186.142 77.763C185.065 79.3 183.464 80.607 181.279 81.659L182.147 83.461ZM187.961 78.336V72.96H185.961V78.336H187.961ZM187.52 72.131C183.675 69.538 179.297 68.248 174.417 68.248V70.248C178.924 70.248 182.908 71.433 186.402 73.789L187.52 72.131ZM174.417 68.248C171.303 68.248 168.747 68.914 166.885 70.383L168.125 71.953C169.506 70.862 171.558 70.248 174.417 70.248V68.248ZM166.885 70.383C164.975 71.891 164.073 74.087 164.073 76.8H166.073C166.073 74.564 166.792 73.005 168.125 71.953L166.885 70.383ZM164.073 76.8C164.073 79.35 164.937 81.444 166.737 82.944L168.017 81.408C166.745 80.348 166.073 78.858 166.073 76.8H164.073ZM166.757 82.961C168.619 84.43 171.175 85.096 174.289 85.096V83.096C171.43 83.096 169.378 82.482 167.997 81.391L166.757 82.961ZM217.78 83.712L217.026 83.056L216.78 83.338V83.712H217.78ZM246.964 50.176L247.718 50.8325L249.16 49.176H246.964V50.176ZM218.548 50.176H217.548V51.176H218.548V50.176ZM218.548 34.56V33.56H217.548V34.56H218.548ZM276.66 34.56H277.66V33.56H276.66V34.56ZM276.66 46.848L277.417 47.5012L277.66 47.2197V46.848H276.66ZM247.732 80.384L246.975 79.731L245.549 81.384H247.732V80.384ZM277.684 80.384H278.684V79.384H277.684V80.384ZM277.684 96V97H278.684V96H277.684ZM217.78 96H216.78V97H217.78V96ZM218.534 84.368L247.718 50.8325L246.21 49.5195L217.026 83.056L218.534 84.368ZM246.964 49.176H218.548V51.176H246.964V49.176ZM219.548 50.176V34.56H217.548V50.176H219.548ZM218.548 35.56H276.66V33.56H218.548V35.56ZM275.66 34.56V46.848H277.66V34.56H275.66ZM275.903 46.1948L246.975 79.731L248.489 81.037L277.417 47.5012L275.903 46.1948ZM247.732 81.384H277.684V79.384H247.732V81.384ZM276.684 80.384V96H278.684V80.384H276.684ZM277.684 95H217.78V97H277.684V95ZM218.78 96V83.712H216.78V96H218.78ZM292.458 120.704L292.599 119.714L292.586 119.712L292.572 119.71L292.458 120.704ZM285.802 119.168H284.802V119.803L285.376 120.073L285.802 119.168ZM285.802 102.4L286.184 101.476L284.802 100.904V102.4H285.802ZM300.778 102.016L300.185 101.211L300.161 101.229L300.138 101.248L300.778 102.016ZM304.618 96.256L303.682 95.905L303.679 95.913L303.676 95.922L304.618 96.256ZM306.154 92.16L307.09 92.511L307.237 92.12L307.062 91.74L306.154 92.16ZM279.53 34.56V33.56H277.966L278.622 34.9796L279.53 34.56ZM302.058 34.56L302.986 34.1881L302.735 33.56H302.058V34.56ZM318.058 74.496L317.13 74.868L318.085 77.252L318.993 74.85L318.058 74.496ZM333.162 34.56V33.56H332.471L332.227 34.2062L333.162 34.56ZM355.69 34.56L356.62 34.9269L357.159 33.56H355.69V34.56ZM330.346 98.816L329.416 98.449L329.414 98.454L330.346 98.816ZM318.826 115.84L318.21 115.052L318.203 115.058L318.826 115.84ZM301.034 120.344C298.355 120.344 295.544 120.135 292.599 119.714L292.317 121.694C295.345 122.127 298.251 122.344 301.034 122.344V120.344ZM292.572 119.71C289.616 119.373 287.528 118.875 286.228 118.263L285.376 120.073C286.977 120.826 289.327 121.353 292.345 121.698L292.572 119.71ZM286.802 119.168V102.4H284.802V119.168H286.802ZM285.42 103.324C288.035 104.406 290.985 104.936 294.25 104.936V102.936C291.201 102.936 288.518 102.442 286.184 101.476L285.42 103.324ZM294.25 104.936C297.206 104.936 299.641 104.265 301.418 102.784L300.138 101.248C298.843 102.327 296.926 102.936 294.25 102.936V104.936ZM301.371 102.821C303.205 101.47 304.58 99.352 305.561 96.59L303.676 95.922C302.778 98.45 301.594 100.173 300.185 101.211L301.371 102.821ZM305.554 96.607L307.09 92.511L305.218 91.809L303.682 95.905L305.554 96.607ZM307.062 91.74L280.438 34.1404L278.622 34.9796L305.246 92.58L307.062 91.74ZM279.53 35.56H302.058V33.56H279.53V35.56ZM301.13 34.9319L317.13 74.868L318.986 74.124L302.986 34.1881L301.13 34.9319ZM318.993 74.85L334.097 34.9137L332.227 34.2062L317.123 74.142L318.993 74.85ZM333.162 35.56H355.69V33.56H333.162V35.56ZM354.76 34.1931L329.416 98.449L331.276 99.183L356.62 34.9269L354.76 34.1931ZM329.414 98.454C326.469 106.027 322.718 111.528 318.21 115.052L319.442 116.628C324.321 112.813 328.25 106.965 331.278 99.178L329.414 98.454ZM318.203 115.058C313.81 118.556 308.115 120.344 301.034 120.344V122.344C308.46 122.344 314.626 120.463 319.449 116.622L318.203 115.058ZM426.07 92.288L425.615 93.178L425.619 93.18L426.07 92.288ZM409.046 76.16L408.176 76.653L408.178 76.657L409.046 76.16ZM409.046 26.624L409.914 27.1213L409.916 27.1167L409.046 26.624ZM426.07 10.368L426.526 11.2583L426.53 11.2562L426.07 10.368ZM482.902 12.544H483.902V11.9967L483.441 11.7017L482.902 12.544ZM482.902 34.048L482.28 34.8306L483.902 36.1212V34.048H482.902ZM470.102 27.52L469.823 28.4802L469.827 28.4815L470.102 27.52ZM433.494 32.384L434.181 33.1103L434.188 33.1038L433.494 32.384ZM433.494 70.4L432.8 71.12L432.806 71.126L433.494 70.4ZM483.926 68.224H484.926V66.216L483.323 67.426L483.926 68.224ZM483.926 89.6L484.491 90.425L484.926 90.127V89.6H483.926ZM451.798 96.92C442.2 96.92 433.784 95.068 426.521 91.396L425.619 93.18C433.205 97.017 441.94 98.92 451.798 98.92V96.92ZM426.526 91.398C419.355 87.729 413.826 82.488 409.914 75.663L408.178 76.657C412.288 83.827 418.107 89.337 425.615 93.178L426.526 91.398ZM409.916 75.667C406.004 68.758 404.03 60.656 404.03 51.328H402.03C402.03 60.944 404.067 69.397 408.176 76.653L409.916 75.667ZM404.03 51.328C404.03 41.9998 406.004 33.9427 409.914 27.1213L408.178 26.1267C404.067 33.3 402.03 41.7122 402.03 51.328H404.03ZM409.916 27.1167C413.829 20.2066 419.359 14.9251 426.526 11.2583L425.615 9.47772C418.104 13.3203 412.284 18.8761 408.176 26.1312L409.916 27.1167ZM426.53 11.2562C433.79 7.50082 442.204 5.60802 451.798 5.60802V3.60802C441.936 3.60802 433.198 5.55522 425.611 9.47982L426.53 11.2562ZM451.798 5.60802C458.133 5.60802 463.766 6.24172 468.704 7.49722L469.196 5.55882C464.065 4.25432 458.263 3.60802 451.798 3.60802V5.60802ZM468.704 7.49722C473.637 8.75152 478.189 10.7148 482.363 13.3863L483.441 11.7017C479.082 8.91192 474.332 6.86452 469.196 5.55882L468.704 7.49722ZM481.902 12.544V34.048H483.902V12.544H481.902ZM483.525 33.2654C479.663 30.1938 475.277 27.9586 470.377 26.5585L469.827 28.4815C474.484 29.812 478.632 31.9288 482.28 34.8306L483.525 33.2654ZM470.381 26.5598C465.578 25.1623 460.062 24.472 453.846 24.472V26.472C459.919 26.472 465.24 27.147 469.823 28.4802L470.381 26.5598ZM453.846 24.472C444.884 24.472 437.819 26.8243 432.8 31.6642L434.188 33.1038C438.726 28.7277 445.229 26.472 453.846 26.472V24.472ZM432.807 31.6577C427.784 36.4115 425.326 43.0148 425.326 51.328H427.326C427.326 43.4278 429.647 37.4018 434.181 33.1103L432.807 31.6577ZM425.326 51.328C425.326 59.642 427.784 66.283 432.8 71.12L434.188 69.68C429.647 65.301 427.326 59.227 427.326 51.328H425.326ZM432.806 71.126C437.907 75.958 444.965 78.312 453.846 78.312V76.312C445.319 76.312 438.81 74.058 434.182 69.674L432.806 71.126ZM453.846 78.312C460.067 78.312 465.67 77.578 470.644 76.094L470.072 74.178C465.318 75.596 459.913 76.312 453.846 76.312V78.312ZM470.644 76.094C475.626 74.608 480.255 72.249 484.529 69.022L483.323 67.426C479.234 70.514 474.818 72.762 470.072 74.178L470.644 76.094ZM482.926 68.224V89.6H484.926V68.224H482.926ZM483.361 88.775C475.471 94.174 464.979 96.92 451.798 96.92V98.92C465.242 98.92 476.168 96.12 484.491 90.425L483.361 88.775ZM496.208 120.704L496.349 119.714L496.336 119.712L496.322 119.71L496.208 120.704ZM489.552 119.168H488.552V119.803L489.126 120.073L489.552 119.168ZM489.552 102.4L489.934 101.476L488.552 100.904V102.4H489.552ZM504.528 102.016L503.935 101.211L503.911 101.229L503.888 101.248L504.528 102.016ZM508.368 96.256L507.432 95.905L507.429 95.913L507.426 95.922L508.368 96.256ZM509.904 92.16L510.84 92.511L510.987 92.12L510.812 91.74L509.904 92.16ZM483.28 34.56V33.56H481.716L482.372 34.9796L483.28 34.56ZM505.808 34.56L506.736 34.1881L506.485 33.56H505.808V34.56ZM521.808 74.496L520.88 74.868L521.835 77.252L522.743 74.85L521.808 74.496ZM536.912 34.56V33.56H536.221L535.977 34.2062L536.912 34.56ZM559.44 34.56L560.37 34.9269L560.909 33.56H559.44V34.56ZM534.096 98.816L533.166 98.449L533.164 98.454L534.096 98.816ZM522.576 115.84L521.96 115.052L521.953 115.058L522.576 115.84ZM504.784 120.344C502.105 120.344 499.294 120.135 496.349 119.714L496.067 121.694C499.095 122.127 502.001 122.344 504.784 122.344V120.344ZM496.322 119.71C493.366 119.373 491.278 118.875 489.978 118.263L489.126 120.073C490.727 120.826 493.077 121.353 496.095 121.698L496.322 119.71ZM490.552 119.168V102.4H488.552V119.168H490.552ZM489.17 103.324C491.785 104.406 494.735 104.936 498 104.936V102.936C494.951 102.936 492.268 102.442 489.934 101.476L489.17 103.324ZM498 104.936C500.956 104.936 503.391 104.265 505.168 102.784L503.888 101.248C502.593 102.327 500.676 102.936 498 102.936V104.936ZM505.121 102.821C506.955 101.47 508.33 99.352 509.311 96.59L507.426 95.922C506.528 98.45 505.344 100.173 503.935 101.211L505.121 102.821ZM509.304 96.607L510.84 92.511L508.968 91.809L507.432 95.905L509.304 96.607ZM510.812 91.74L484.188 34.1404L482.372 34.9796L508.996 92.58L510.812 91.74ZM483.28 35.56H505.808V33.56H483.28V35.56ZM504.88 34.9319L520.88 74.868L522.736 74.124L506.736 34.1881L504.88 34.9319ZM522.743 74.85L537.847 34.9137L535.977 34.2062L520.873 74.142L522.743 74.85ZM536.912 35.56H559.44V33.56H536.912V35.56ZM558.51 34.1931L533.166 98.449L535.026 99.183L560.37 34.9269L558.51 34.1931ZM533.164 98.454C530.219 106.027 526.468 111.528 521.96 115.052L523.192 116.628C528.071 112.813 532 106.965 535.028 99.178L533.164 98.454ZM521.953 115.058C517.56 118.556 511.865 120.344 504.784 120.344V122.344C512.21 122.344 518.376 120.463 523.199 116.622L521.953 115.058ZM587.6 89.856L588.285 89.127L586.6 87.543V89.856H587.6ZM587.6 96V97H588.6V96H587.6ZM565.84 96H564.84V97H565.84V96ZM565.84 1.40802V0.40802H564.84V1.40802H565.84ZM588.368 1.40802H589.368V0.40802H588.368V1.40802ZM588.368 39.552H587.368V41.7344L589.021 40.3094L588.368 39.552ZM597.584 34.56L597.894 35.511L597.907 35.5065L597.584 34.56ZM626.384 36.736L625.895 37.608L625.901 37.6116L626.384 36.736ZM637.904 48.384L637.025 48.8608L637.029 48.8671L637.904 48.384ZM637.904 82.56L638.776 83.05L638.78 83.043L637.904 82.56ZM626.384 93.952L626.855 94.834L626.867 94.828L626.384 93.952ZM614.608 76.544L615.293 77.273L615.299 77.267L615.304 77.262L614.608 76.544ZM594.256 52.864L594.786 53.712L594.795 53.7061L594.805 53.7L594.256 52.864ZM588.368 59.904L587.44 59.533L587.368 59.711V59.904H588.368ZM588.368 70.784H587.368V70.977L587.44 71.155L588.368 70.784ZM594.256 77.952L593.707 78.788L593.717 78.794L593.726 78.8L594.256 77.952ZM609.36 96.92C600.792 96.92 593.794 94.308 588.285 89.127L586.915 90.585C592.841 96.156 600.349 98.92 609.36 98.92V96.92ZM586.6 89.856V96H588.6V89.856H586.6ZM587.6 95H565.84V97H587.6V95ZM566.84 96V1.40802H564.84V96H566.84ZM565.84 2.40802H588.368V0.40802H565.84V2.40802ZM587.368 1.40802V39.552H589.368V1.40802H587.368ZM589.021 40.3094C591.379 38.2769 594.328 36.6719 597.894 35.511L597.274 33.6091C593.501 34.8375 590.307 36.5604 587.715 38.7946L589.021 40.3094ZM597.907 35.5065C601.554 34.2631 605.37 33.64 609.36 33.64V31.64C605.158 31.64 601.123 32.2969 597.261 33.6135L597.907 35.5065ZM609.36 33.64C615.702 33.64 621.203 34.974 625.895 37.608L626.874 35.864C621.837 33.0366 615.989 31.64 609.36 31.64V33.64ZM625.901 37.6116C630.681 40.2486 634.384 43.9918 637.025 48.8608L638.783 47.9072C635.963 42.7069 631.986 38.6847 626.867 35.8604L625.901 37.6116ZM637.029 48.8671C639.667 53.6498 641 59.154 641 65.408H643C643 58.862 641.602 53.0168 638.78 47.9009L637.029 48.8671ZM641 65.408C641 71.75 639.666 77.296 637.029 82.077L638.78 83.043C641.603 77.925 643 72.037 643 65.408H641ZM637.032 82.07C634.394 86.77 630.69 90.434 625.901 93.076L626.867 94.828C631.977 92.008 635.953 88.078 638.776 83.05L637.032 82.07ZM625.913 93.07C621.128 95.628 615.619 96.92 609.36 96.92V98.92C615.901 98.92 621.742 97.567 626.855 94.834L625.913 93.07ZM603.472 81.512C608.282 81.512 612.257 80.125 615.293 77.273L613.923 75.815C611.328 78.254 607.878 79.512 603.472 79.512V81.512ZM615.304 77.262C618.352 74.306 619.832 70.315 619.832 65.408H617.832C617.832 69.888 616.496 73.32 613.912 75.826L615.304 77.262ZM619.832 65.408C619.832 60.501 618.352 56.51 615.304 53.5541L613.912 54.9899C616.496 57.496 617.832 60.928 617.832 65.408H619.832ZM615.304 53.5541C612.269 50.6112 608.291 49.176 603.472 49.176V51.176C607.869 51.176 611.315 52.4714 613.912 54.9899L615.304 53.5541ZM603.472 49.176C599.873 49.176 596.609 50.124 593.707 52.028L594.805 53.7C597.365 52.02 600.244 51.176 603.472 51.176V49.176ZM593.726 52.016C590.816 53.8351 588.713 56.349 587.44 59.533L589.297 60.275C590.412 57.486 592.235 55.3063 594.786 53.712L593.726 52.016ZM587.368 59.904V70.784H589.368V59.904H587.368ZM587.44 71.155C588.712 74.335 590.808 76.886 593.707 78.788L594.805 77.116C592.242 75.434 590.414 73.206 589.297 70.413L587.44 71.155ZM593.726 78.8C596.625 80.612 599.883 81.512 603.472 81.512V79.512C600.234 79.512 597.348 78.705 594.786 77.104L593.726 78.8ZM658.645 89.472L658.009 90.243L658.013 90.247L658.645 89.472ZM657.493 41.472L656.801 40.75L656.796 40.7549L657.493 41.472ZM702.805 36.864L702.329 37.7435L702.338 37.7482L702.346 37.7526L702.805 36.864ZM714.709 48.256L713.831 48.7338L713.836 48.743L713.841 48.7521L714.709 48.256ZM718.805 72.832V73.832H719.805V72.832H718.805ZM669.781 72.832V71.832H668.5L668.811 73.075L669.781 72.832ZM702.421 81.536L702.263 80.549H702.26L702.421 81.536ZM713.429 78.72H714.429V77.258L713.067 77.788L713.429 78.72ZM713.429 93.568L713.805 94.495L714.429 94.242V93.568H713.429ZM701.525 96.64L701.366 95.653L701.356 95.654L701.346 95.656L701.525 96.64ZM697.557 58.752V59.752H698.665L698.552 58.65L697.557 58.752ZM673.877 51.072L674.495 51.8583L674.503 51.8516L674.512 51.8447L673.877 51.072ZM669.781 58.752L668.787 58.647L668.67 59.752H669.781V58.752ZM687.061 96.92C675.179 96.92 665.957 94.14 659.277 88.697L658.013 90.247C665.158 96.068 674.879 98.92 687.061 98.92V96.92ZM659.281 88.701C652.725 83.291 649.405 75.618 649.405 65.536H647.405C647.405 76.104 650.912 84.389 658.009 90.243L659.281 88.701ZM649.405 65.536C649.405 55.5929 652.363 47.8516 658.19 42.1891L656.796 40.7549C650.505 46.8684 647.405 55.1698 647.405 65.536H649.405ZM658.185 42.194C664.085 36.5398 672.634 33.64 683.989 33.64V31.64C672.304 31.64 663.189 34.6282 656.801 40.75L658.185 42.194ZM683.989 33.64C691.201 33.64 697.301 35.0234 702.329 37.7435L703.281 35.9845C697.898 33.0726 691.455 31.64 683.989 31.64V33.64ZM702.346 37.7526C707.473 40.3987 711.288 44.0591 713.831 48.7338L715.588 47.7782C712.839 42.7249 708.718 38.7906 703.264 35.9754L702.346 37.7526ZM713.841 48.7521C716.477 53.3648 717.805 58.609 717.805 64.512H719.805C719.805 58.297 718.403 52.7045 715.577 47.7599L713.841 48.7521ZM717.805 64.512V72.832H719.805V64.512H717.805ZM718.805 71.832H669.781V73.832H718.805V71.832ZM668.811 73.075C669.744 76.806 672.099 79.516 675.771 81.168L676.591 79.344C673.437 77.924 671.525 75.685 670.751 72.589L668.811 73.075ZM675.771 81.168C679.366 82.786 684.176 83.56 690.133 83.56V81.56C684.314 81.56 679.823 80.798 676.591 79.344L675.771 81.168ZM690.133 83.56C694.201 83.56 698.351 83.214 702.582 82.523L702.26 80.549C698.129 81.224 694.087 81.56 690.133 81.56V83.56ZM702.579 82.523C706.895 81.833 710.637 80.879 713.792 79.652L713.067 77.788C710.077 78.95 706.48 79.874 702.263 80.549L702.579 82.523ZM712.429 78.72V93.568H714.429V78.72H712.429ZM713.053 92.641C709.988 93.884 706.099 94.892 701.366 95.653L701.684 97.627C706.508 96.852 710.555 95.812 713.805 94.495L713.053 92.641ZM701.346 95.656C696.714 96.498 691.953 96.92 687.061 96.92V98.92C692.068 98.92 696.949 98.488 701.704 97.624L701.346 95.656ZM698.552 58.65C698.186 55.0823 696.704 52.2204 694.079 50.1577L692.843 51.7303C694.997 53.4223 696.246 55.7657 696.562 58.854L698.552 58.65ZM694.079 50.1577C691.458 48.098 687.927 47.128 683.605 47.128V49.128C687.646 49.128 690.686 50.0353 692.843 51.7303L694.079 50.1577ZM683.605 47.128C679.353 47.128 675.861 48.1479 673.242 50.2993L674.512 51.8447C676.671 50.0708 679.665 49.128 683.605 49.128V47.128ZM673.259 50.2857C670.641 52.3431 669.154 55.1577 668.787 58.647L670.776 58.857C671.091 55.861 672.335 53.5556 674.495 51.8583L673.259 50.2857ZM669.781 59.752H697.557V57.752H669.781V59.752ZM727.715 34.56V33.56H726.715V34.56H727.715ZM749.475 34.56H750.475V33.56H749.475V34.56ZM749.475 42.24H748.475V44.9014L750.228 42.8985L749.475 42.24ZM759.587 35.968L759.903 36.9167L759.912 36.9139L759.92 36.911L759.587 35.968ZM774.051 33.664H775.051V32.664H774.051V33.664ZM774.051 50.944V51.944H775.051V50.944H774.051ZM759.075 53.376L758.726 52.4389L758.72 52.4412L759.075 53.376ZM750.243 60.672L749.349 60.225L749.243 60.436V60.672H750.243ZM750.243 96V97H751.243V96H750.243ZM727.715 96H726.715V97H727.715V96ZM727.715 35.56H749.475V33.56H727.715V35.56ZM748.475 34.56V42.24H750.475V34.56H748.475ZM750.228 42.8985C752.473 40.3326 755.676 38.3258 759.903 36.9167L759.271 35.0193C754.794 36.5116 751.256 38.686 748.723 41.5815L750.228 42.8985ZM759.92 36.911C764.151 35.4178 768.857 34.664 774.051 34.664V32.664C768.663 32.664 763.728 33.4462 759.254 35.025L759.92 36.911ZM773.051 33.664V50.944H775.051V33.664H773.051ZM774.051 49.944C768.324 49.944 763.211 50.7682 758.726 52.4389L759.424 54.3131C763.644 52.7412 768.514 51.944 774.051 51.944V49.944ZM758.72 52.4412C754.282 54.1277 751.109 56.704 749.349 60.225L751.138 61.119C752.62 58.155 755.335 55.867 759.43 54.3108L758.72 52.4412ZM749.243 60.672V96H751.243V60.672H749.243ZM750.243 95H727.715V97H750.243V95ZM728.715 96V34.56H726.715V96H728.715Z" fill="#3190FF"/>
</g>
<mask id="mask1_75_8" style="mask-type:luminance" maskUnits="userSpaceOnUse" x="2" y="4" width="766" height="124">
<path d="M768 4.12469H2V127.125H768V4.12469Z" fill="white"/>
<path d="M51.9682 102.045C42.2402 102.045 33.6642 100.167 26.2402 96.413C18.9015 92.658 13.2269 87.282 9.2162 80.285C5.20552 73.202 3.2002 64.925 3.2002 55.4527C3.2002 45.9807 5.20552 37.746 9.2162 30.7487C13.2269 23.666 18.9015 18.2474 26.2402 14.4927C33.6642 10.6527 42.2402 8.73272 51.9682 8.73272C58.3682 8.73272 64.0855 9.37271 69.1202 10.6527C74.1549 11.9327 78.8055 13.938 83.0722 16.6687V38.1727C79.3175 35.186 75.0509 33.01 70.2722 31.6447C65.5789 30.2794 60.1602 29.5967 54.0162 29.5967C45.2269 29.5967 38.4429 31.9007 33.6642 36.5087C28.8855 41.0314 26.4962 47.346 26.4962 55.4527C26.4962 63.559 28.8855 69.917 33.6642 74.525C38.5282 79.133 45.3122 81.437 54.0162 81.437C60.1602 81.437 65.6642 80.711 70.5282 79.261C75.3922 77.81 79.9149 75.506 84.0962 72.349V93.725C75.9895 99.271 65.2802 102.045 51.9682 102.045ZM89.7602 38.6847H111.52V46.3647C113.909 43.634 117.28 41.5434 121.632 40.0927C125.984 38.5567 130.805 37.7887 136.096 37.7887V55.0687C130.464 55.0687 125.472 55.8794 121.12 57.501C116.853 59.122 113.909 61.554 112.288 64.797V100.125H89.7602V38.6847ZM159.928 102.045C152.248 102.045 146.019 100.21 141.24 96.541C136.547 92.786 134.2 87.581 134.2 80.925C134.2 74.013 136.461 68.722 140.984 65.053C145.592 61.298 152.163 59.421 160.696 59.421C164.024 59.421 167.352 59.805 170.68 60.573C174.008 61.255 176.867 62.194 179.256 63.389V62.109C179.256 55.538 173.88 52.2527 163.128 52.2527C155.619 52.2527 148.749 53.7034 142.52 56.605V41.1167C145.251 39.8367 148.835 38.8127 153.272 38.0447C157.709 37.1914 162.317 36.7647 167.096 36.7647C178.531 36.7647 187.149 39.0687 192.952 43.6767C198.84 48.1994 201.784 54.5567 201.784 62.749V100.125H180.664V94.877C178.36 97.095 175.459 98.845 171.96 100.125C168.461 101.405 164.451 102.045 159.928 102.045ZM166.584 88.221C169.229 88.221 171.704 87.709 174.008 86.685C176.312 85.575 178.061 84.167 179.256 82.461V77.085C175.587 74.61 171.405 73.373 166.712 73.373C163.725 73.373 161.421 74.013 159.8 75.293C158.179 76.573 157.368 78.45 157.368 80.925C157.368 83.229 158.136 85.021 159.672 86.301C161.293 87.581 163.597 88.221 166.584 88.221ZM210.075 87.837L239.259 54.3007H210.843V38.6847H268.955V50.9727L240.027 84.509H269.979V100.125H210.075V87.837ZM293.329 125.469C290.598 125.469 287.74 125.255 284.753 124.829C281.766 124.487 279.548 123.975 278.097 123.293V106.525C280.572 107.549 283.388 108.061 286.545 108.061C289.361 108.061 291.537 107.421 293.073 106.141C294.694 104.946 295.974 103.026 296.913 100.381L298.449 96.285L271.825 38.6847H294.353L310.353 78.621L325.457 38.6847H347.985L322.641 102.941C319.654 110.621 315.814 116.295 311.121 119.965C306.513 123.634 300.582 125.469 293.329 125.469ZM444.093 102.045C434.365 102.045 425.789 100.167 418.365 96.413C411.026 92.658 405.352 87.282 401.341 80.285C397.33 73.202 395.325 64.925 395.325 55.4527C395.325 45.9807 397.33 37.746 401.341 30.7487C405.352 23.666 411.026 18.2474 418.365 14.4927C425.789 10.6527 434.365 8.73272 444.093 8.73272C450.493 8.73272 456.21 9.37271 461.245 10.6527C466.28 11.9327 470.93 13.938 475.197 16.6687V38.1727C471.442 35.186 467.176 33.01 462.397 31.6447C457.704 30.2794 452.285 29.5967 446.141 29.5967C437.352 29.5967 430.568 31.9007 425.789 36.5087C421.01 41.0314 418.621 47.346 418.621 55.4527C418.621 63.559 421.01 69.917 425.789 74.525C430.653 79.133 437.437 81.437 446.141 81.437C452.285 81.437 457.789 80.711 462.653 79.261C467.517 77.81 472.04 75.506 476.221 72.349V93.725C468.114 99.271 457.405 102.045 444.093 102.045ZM497.079 125.469C494.348 125.469 491.49 125.255 488.503 124.829C485.516 124.487 483.298 123.975 481.847 123.293V106.525C484.322 107.549 487.138 108.061 490.295 108.061C493.111 108.061 495.287 107.421 496.823 106.141C498.444 104.946 499.724 103.026 500.663 100.381L502.199 96.285L475.575 38.6847H498.103L514.103 78.621L529.207 38.6847H551.735L526.391 102.941C523.404 110.621 519.564 116.295 514.871 119.965C510.263 123.634 504.332 125.469 497.079 125.469ZM601.655 102.045C592.866 102.045 585.612 99.357 579.895 93.981V100.125H558.135V5.53271H580.663V43.6767C583.138 41.5434 586.21 39.8794 589.879 38.6847C593.634 37.4047 597.559 36.7647 601.655 36.7647C608.14 36.7647 613.815 38.13 618.679 40.8607C623.628 43.5914 627.468 47.474 630.199 52.5087C632.93 57.458 634.295 63.133 634.295 69.533C634.295 76.018 632.93 81.735 630.199 86.685C627.468 91.549 623.628 95.346 618.679 98.077C613.73 100.722 608.055 102.045 601.655 102.045ZM595.767 84.637C600.375 84.637 604.087 83.314 606.903 80.669C609.719 77.938 611.127 74.226 611.127 69.533C611.127 64.839 609.719 61.127 606.903 58.397C604.087 55.666 600.375 54.3007 595.767 54.3007C592.354 54.3007 589.282 55.1967 586.551 56.989C583.82 58.695 581.858 61.042 580.663 64.029V74.909C581.858 77.895 583.82 80.285 586.551 82.077C589.282 83.783 592.354 84.637 595.767 84.637ZM679.356 102.045C667.324 102.045 657.852 99.229 650.94 93.597C644.113 87.965 640.7 79.986 640.7 69.661C640.7 59.506 643.729 51.4847 649.788 45.5967C655.932 39.7087 664.764 36.7647 676.284 36.7647C683.623 36.7647 689.895 38.1727 695.1 40.9887C700.391 43.7194 704.359 47.5167 707.004 52.3807C709.735 57.159 711.1 62.578 711.1 68.637V76.957H662.076C662.929 80.37 665.063 82.845 668.476 84.381C671.889 85.917 676.54 86.685 682.428 86.685C686.439 86.685 690.535 86.343 694.716 85.661C698.983 84.978 702.652 84.039 705.724 82.845V97.693C702.567 98.973 698.599 99.997 693.82 100.765C689.127 101.618 684.305 102.045 679.356 102.045ZM689.852 62.877C689.511 59.549 688.145 56.946 685.756 55.0687C683.367 53.1914 680.081 52.2527 675.9 52.2527C671.804 52.2527 668.561 53.234 666.172 55.1967C663.783 57.074 662.417 59.634 662.076 62.877H689.852ZM720.01 38.6847H741.77V46.3647C744.159 43.634 747.53 41.5434 751.882 40.0927C756.234 38.5567 761.055 37.7887 766.346 37.7887V55.0687C760.714 55.0687 755.722 55.8794 751.37 57.501C747.103 59.122 744.159 61.554 742.538 64.797V100.125H720.01V38.6847Z" fill="black"/>
</mask>
<g mask="url(#mask1_75_8)">
<path d="M26.2402 96.413L25.7847 97.303L25.7889 97.305L26.2402 96.413ZM9.2162 80.285L8.34602 80.777L8.34861 80.782L9.2162 80.285ZM9.2162 30.7487L10.0838 31.246L10.0864 31.2414L9.2162 30.7487ZM26.2402 14.4927L26.6957 15.3829L26.6996 15.3809L26.2402 14.4927ZM83.0722 16.6687H84.0722V16.1214L83.6113 15.8264L83.0722 16.6687ZM83.0722 38.1727L82.4497 38.9553L84.0722 40.2459V38.1727H83.0722ZM70.2722 31.6447L69.9929 32.6049L69.9975 32.6062L70.2722 31.6447ZM33.6642 36.5087L34.3516 37.235L34.3583 37.2285L33.6642 36.5087ZM33.6642 74.525L32.97 75.245L32.9765 75.251L33.6642 74.525ZM84.0962 72.349H85.0962V70.341L83.4936 71.551L84.0962 72.349ZM84.0962 93.725L84.6609 94.55L85.0962 94.252V93.725H84.0962ZM51.9682 101.045C42.3705 101.045 33.9537 99.193 26.6915 95.52L25.7889 97.305C33.3747 101.142 42.1099 103.045 51.9682 103.045V101.045ZM26.6957 95.522C19.5255 91.854 13.9958 86.613 10.0838 79.787L8.34861 80.782C12.4579 87.951 18.2775 93.462 25.7847 97.303L26.6957 95.522ZM10.0864 79.792C6.17384 72.883 4.2002 64.781 4.2002 55.4527H2.2002C2.2002 65.069 4.23722 73.521 8.34602 80.777L10.0864 79.792ZM4.2002 55.4527C4.2002 46.1245 6.17395 38.0674 10.0838 31.246L8.34861 30.2514C4.23712 37.4247 2.2002 45.8369 2.2002 55.4527H4.2002ZM10.0864 31.2414C13.9994 24.3313 19.5288 19.0497 26.6957 15.3829L25.7847 13.6024C18.2743 17.445 12.4544 23.0008 8.34603 30.2559L10.0864 31.2414ZM26.6996 15.3809C33.96 11.6255 42.3738 9.73272 51.9682 9.73272V7.73272C42.1066 7.73272 33.3684 9.67982 25.7808 13.6045L26.6996 15.3809ZM51.9682 9.73272C58.3035 9.73272 63.9357 10.3664 68.8738 11.6219L69.3666 9.68351C64.2353 8.37901 58.4329 7.73272 51.9682 7.73272V9.73272ZM68.8738 11.6219C73.8074 12.8762 78.3589 14.8395 82.5332 17.511L83.6113 15.8264C79.2522 13.0366 74.5023 10.9892 69.3666 9.68351L68.8738 11.6219ZM82.0722 16.6687V38.1727H84.0722V16.6687H82.0722ZM83.6947 37.3901C79.8333 34.3185 75.4475 32.0833 70.5469 30.6832L69.9975 32.6062C74.6542 33.9367 78.8017 36.0535 82.4497 38.9553L83.6947 37.3901ZM70.5515 30.6845C65.7477 29.287 60.2316 28.5967 54.0162 28.5967V30.5967C60.0888 30.5967 65.4101 31.2717 69.9929 32.6049L70.5515 30.6845ZM54.0162 28.5967C45.0543 28.5967 37.9892 30.949 32.9701 35.7888L34.3583 37.2285C38.8965 32.8524 45.3994 30.5967 54.0162 30.5967V28.5967ZM32.9768 35.7824C27.9539 40.5362 25.4962 47.1395 25.4962 55.4527H27.4962C27.4962 47.5525 29.8172 41.5265 34.3516 37.235L32.9768 35.7824ZM25.4962 55.4527C25.4962 63.767 27.954 70.408 32.97 75.245L34.3583 73.805C29.817 69.426 27.4962 63.352 27.4962 55.4527H25.4962ZM32.9765 75.251C38.0766 80.082 45.1355 82.437 54.0162 82.437V80.437C45.4889 80.437 38.9798 78.183 34.3519 73.799L32.9765 75.251ZM54.0162 82.437C60.2374 82.437 65.8402 81.702 70.814 80.219L70.2424 78.302C65.4882 79.72 60.083 80.437 54.0162 80.437V82.437ZM70.814 80.219C75.796 78.733 80.4254 76.374 84.6988 73.147L83.4936 71.551C79.4043 74.638 74.9884 76.887 70.2424 78.302L70.814 80.219ZM83.0962 72.349V93.725H85.0962V72.349H83.0962ZM83.5315 92.899C75.6408 98.298 65.1486 101.045 51.9682 101.045V103.045C65.4118 103.045 76.3383 100.244 84.6609 94.55L83.5315 92.899ZM89.7602 38.6847V37.6847H88.7602V38.6847H89.7602ZM111.52 38.6847H112.52V37.6847H111.52V38.6847ZM111.52 46.3647H110.52V49.0261L112.273 47.0232L111.52 46.3647ZM121.632 40.0927L121.948 41.0414L121.957 41.0386L121.965 41.0357L121.632 40.0927ZM136.096 37.7887H137.096V36.7887H136.096V37.7887ZM136.096 55.0687V56.069H137.096V55.0687H136.096ZM121.12 57.501L120.771 56.564L120.765 56.566L121.12 57.501ZM112.288 64.797L111.394 64.349L111.288 64.561V64.797H112.288ZM112.288 100.125V101.125H113.288V100.125H112.288ZM89.7602 100.125H88.7602V101.125H89.7602V100.125ZM89.7602 39.6847H111.52V37.6847H89.7602V39.6847ZM110.52 38.6847V46.3647H112.52V38.6847H110.52ZM112.273 47.0232C114.518 44.4573 117.721 42.4505 121.948 41.0414L121.316 39.144C116.839 40.6362 113.301 42.8107 110.767 45.7062L112.273 47.0232ZM121.965 41.0357C126.196 39.5425 130.902 38.7887 136.096 38.7887V36.7887C130.708 36.7887 125.772 37.5709 121.299 39.1497L121.965 41.0357ZM135.096 37.7887V55.0687H137.096V37.7887H135.096ZM136.096 54.0687C130.369 54.0687 125.256 54.8929 120.771 56.564L121.469 58.438C125.688 56.866 130.559 56.069 136.096 56.069V54.0687ZM120.765 56.566C116.327 58.252 113.154 60.828 111.394 64.349L113.182 65.244C114.665 62.28 117.38 59.992 121.475 58.435L120.765 56.566ZM111.288 64.797V100.125H113.288V64.797H111.288ZM112.288 99.125H89.7602V101.125H112.288V99.125ZM90.7602 100.125V38.6847H88.7602V100.125H90.7602ZM141.24 96.541L140.615 97.322L140.623 97.328L140.631 97.334L141.24 96.541ZM140.984 65.053L141.614 65.829L141.616 65.828L140.984 65.053ZM170.68 60.573L170.455 61.547L170.467 61.55L170.479 61.552L170.68 60.573ZM179.256 63.389L178.809 64.283L180.256 65.007V63.389H179.256ZM142.52 56.605H141.52V58.174L142.942 57.511L142.52 56.605ZM142.52 41.1167L142.096 40.2112L141.52 40.481V41.1167H142.52ZM153.272 38.0447L153.443 39.03L153.452 39.0285L153.461 39.0267L153.272 38.0447ZM192.952 43.6767L192.33 44.4598L192.336 44.4648L192.343 44.4697L192.952 43.6767ZM201.784 100.125V101.125H202.784V100.125H201.784ZM180.664 100.125H179.664V101.125H180.664V100.125ZM180.664 94.877H181.664V92.525L179.97 94.156L180.664 94.877ZM174.008 86.685L174.414 87.599L174.428 87.592L174.442 87.586L174.008 86.685ZM179.256 82.461L180.075 83.034L180.256 82.776V82.461H179.256ZM179.256 77.085H180.256V76.553L179.815 76.256L179.256 77.085ZM159.672 86.301L159.032 87.069L159.042 87.077L159.052 87.086L159.672 86.301ZM159.928 101.045C152.407 101.045 146.41 99.25 141.849 95.748L140.631 97.334C145.627 101.17 152.089 103.045 159.928 103.045V101.045ZM141.865 95.76C137.436 92.217 135.2 87.314 135.2 80.925H133.2C133.2 87.847 135.657 93.355 140.615 97.322L141.865 95.76ZM135.2 80.925C135.2 74.251 137.37 69.272 141.614 65.829L140.354 64.276C135.553 68.172 133.2 73.774 133.2 80.925H135.2ZM141.616 65.828C145.982 62.27 152.295 60.421 160.696 60.421V58.421C152.03 58.421 145.202 60.326 140.352 64.277L141.616 65.828ZM160.696 60.421C163.946 60.421 167.199 60.796 170.455 61.547L170.905 59.598C167.505 58.814 164.102 58.421 160.696 58.421V60.421ZM170.479 61.552C173.744 62.222 176.515 63.136 178.809 64.283L179.703 62.494C177.218 61.252 174.272 60.289 170.881 59.593L170.479 61.552ZM180.256 63.389V62.109H178.256V63.389H180.256ZM180.256 62.109C180.256 58.493 178.746 55.697 175.745 53.8634C172.825 52.0788 168.573 51.2527 163.128 51.2527V53.2527C168.435 53.2527 172.247 54.0693 174.703 55.57C177.078 57.022 178.256 59.154 178.256 62.109H180.256ZM163.128 51.2527C155.486 51.2527 148.471 52.7297 142.098 55.6982L142.942 57.511C149.027 54.677 155.751 53.2527 163.128 53.2527V51.2527ZM143.52 56.605V41.1167H141.52V56.605H143.52ZM142.944 42.0222C145.565 40.7936 149.054 39.7895 153.443 39.03L153.101 37.0593C148.615 37.8358 144.936 38.8797 142.096 40.2112L142.944 42.0222ZM153.461 39.0267C157.832 38.186 162.377 37.7647 167.096 37.7647V35.7647C162.258 35.7647 157.586 36.1967 153.083 37.0627L153.461 39.0267ZM167.096 37.7647C178.421 37.7647 186.778 40.0505 192.33 44.4598L193.574 42.8936C187.521 38.0869 178.64 35.7647 167.096 35.7647V37.7647ZM192.343 44.4697C197.957 48.7817 200.784 54.8305 200.784 62.749H202.784C202.784 54.2829 199.723 47.617 193.561 42.8836L192.343 44.4697ZM200.784 62.749V100.125H202.784V62.749H200.784ZM201.784 99.125H180.664V101.125H201.784V99.125ZM181.664 100.125V94.877H179.664V100.125H181.664ZM179.97 94.156C177.782 96.264 175.006 97.946 171.616 99.186L172.304 101.064C175.912 99.744 178.938 97.927 181.358 95.597L179.97 94.156ZM171.616 99.186C168.249 100.418 164.358 101.045 159.928 101.045V103.045C164.544 103.045 168.674 102.392 172.304 101.064L171.616 99.186ZM166.584 89.221C169.362 89.221 171.976 88.682 174.414 87.599L173.602 85.771C171.432 86.735 169.096 87.221 166.584 87.221V89.221ZM174.442 87.586C176.865 86.419 178.762 84.91 180.075 83.034L178.437 81.887C177.36 83.425 175.759 84.732 173.574 85.784L174.442 87.586ZM180.256 82.461V77.085H178.256V82.461H180.256ZM179.815 76.256C175.97 73.663 171.592 72.373 166.712 72.373V74.373C171.219 74.373 175.203 75.557 178.697 77.914L179.815 76.256ZM166.712 72.373C163.598 72.373 161.042 73.038 159.18 74.508L160.42 76.078C161.801 74.987 163.853 74.373 166.712 74.373V72.373ZM159.18 74.508C157.27 76.016 156.368 78.212 156.368 80.925H158.368C158.368 78.689 159.087 77.13 160.42 76.078L159.18 74.508ZM156.368 80.925C156.368 83.475 157.232 85.569 159.032 87.069L160.312 85.532C159.04 84.473 158.368 82.982 158.368 80.925H156.368ZM159.052 87.086C160.914 88.555 163.47 89.221 166.584 89.221V87.221C163.725 87.221 161.673 86.606 160.292 85.516L159.052 87.086ZM210.075 87.837L209.321 87.18L209.075 87.463V87.837H210.075ZM239.259 54.3007L240.013 54.9572L241.455 53.3007H239.259V54.3007ZM210.843 54.3007H209.843V55.3007H210.843V54.3007ZM210.843 38.6847V37.6847H209.843V38.6847H210.843ZM268.955 38.6847H269.955V37.6847H268.955V38.6847ZM268.955 50.9727L269.712 51.6259L269.955 51.3444V50.9727H268.955ZM240.027 84.509L239.27 83.856L237.844 85.509H240.027V84.509ZM269.979 84.509H270.979V83.509H269.979V84.509ZM269.979 100.125V101.125H270.979V100.125H269.979ZM210.075 100.125H209.075V101.125H210.075V100.125ZM210.829 88.493L240.013 54.9572L238.505 53.6442L209.321 87.18L210.829 88.493ZM239.259 53.3007H210.843V55.3007H239.259V53.3007ZM211.843 54.3007V38.6847H209.843V54.3007H211.843ZM210.843 39.6847H268.955V37.6847H210.843V39.6847ZM267.955 38.6847V50.9727H269.955V38.6847H267.955ZM268.198 50.3195L239.27 83.856L240.784 85.162L269.712 51.6259L268.198 50.3195ZM240.027 85.509H269.979V83.509H240.027V85.509ZM268.979 84.509V100.125H270.979V84.509H268.979ZM269.979 99.125H210.075V101.125H269.979V99.125ZM211.075 100.125V87.837H209.075V100.125H211.075ZM284.753 124.829L284.894 123.839L284.881 123.837L284.867 123.835L284.753 124.829ZM278.097 123.293H277.097V123.927L277.671 124.198L278.097 123.293ZM278.097 106.525L278.479 105.601L277.097 105.029V106.525H278.097ZM293.073 106.141L292.48 105.336L292.456 105.353L292.433 105.372L293.073 106.141ZM296.913 100.381L295.977 100.03L295.974 100.038L295.971 100.046L296.913 100.381ZM298.449 96.285L299.385 96.636L299.532 96.244L299.357 95.865L298.449 96.285ZM271.825 38.6847V37.6847H270.261L270.917 39.1043L271.825 38.6847ZM294.353 38.6847L295.281 38.3128L295.03 37.6847H294.353V38.6847ZM310.353 78.621L309.425 78.993L310.38 81.377L311.288 78.974L310.353 78.621ZM325.457 38.6847V37.6847H324.766L324.522 38.3309L325.457 38.6847ZM347.985 38.6847L348.915 39.0516L349.454 37.6847H347.985V38.6847ZM322.641 102.941L321.711 102.574L321.709 102.578L322.641 102.941ZM311.121 119.965L310.505 119.177L310.498 119.182L311.121 119.965ZM293.329 124.469C290.65 124.469 287.839 124.259 284.894 123.839L284.612 125.819C287.64 126.251 290.546 126.469 293.329 126.469V124.469ZM284.867 123.835C281.911 123.497 279.823 123 278.523 122.388L277.671 124.198C279.272 124.951 281.622 125.477 284.639 125.822L284.867 123.835ZM279.097 123.293V106.525H277.097V123.293H279.097ZM277.715 107.449C280.33 108.531 283.28 109.061 286.545 109.061V107.061C283.496 107.061 280.813 106.566 278.479 105.601L277.715 107.449ZM286.545 109.061C289.501 109.061 291.936 108.39 293.713 106.909L292.433 105.372C291.138 106.452 289.221 107.061 286.545 107.061V109.061ZM293.666 106.946C295.5 105.594 296.875 103.477 297.855 100.715L295.971 100.046C295.073 102.575 293.888 104.298 292.48 105.336L293.666 106.946ZM297.849 100.732L299.385 96.636L297.513 95.934L295.977 100.03L297.849 100.732ZM299.357 95.865L272.733 38.2651L270.917 39.1043L297.541 96.704L299.357 95.865ZM271.825 39.6847H294.353V37.6847H271.825V39.6847ZM293.425 39.0566L309.425 78.993L311.281 78.249L295.281 38.3128L293.425 39.0566ZM311.288 78.974L326.392 39.0384L324.522 38.3309L309.418 78.267L311.288 78.974ZM325.457 39.6847H347.985V37.6847H325.457V39.6847ZM347.055 38.3178L321.711 102.574L323.571 103.308L348.915 39.0516L347.055 38.3178ZM321.709 102.578C318.764 110.152 315.012 115.653 310.505 119.177L311.737 120.753C316.616 116.938 320.545 111.089 323.573 103.303L321.709 102.578ZM310.498 119.182C306.105 122.681 300.41 124.469 293.329 124.469V126.469C300.755 126.469 306.921 124.587 311.744 120.747L310.498 119.182ZM418.365 96.413L417.91 97.303L417.914 97.305L418.365 96.413ZM401.341 80.285L400.471 80.777L400.473 80.782L401.341 80.285ZM401.341 30.7487L402.209 31.246L402.211 31.2414L401.341 30.7487ZM418.365 14.4927L418.82 15.3829L418.824 15.3809L418.365 14.4927ZM475.197 16.6687H476.197V16.1214L475.736 15.8264L475.197 16.6687ZM475.197 38.1727L474.574 38.9553L476.197 40.2459V38.1727H475.197ZM462.397 31.6447L462.118 32.6049L462.122 32.6062L462.397 31.6447ZM425.789 36.5087L426.476 37.235L426.483 37.2285L425.789 36.5087ZM425.789 74.525L425.095 75.245L425.101 75.251L425.789 74.525ZM476.221 72.349H477.221V70.341L475.618 71.551L476.221 72.349ZM476.221 93.725L476.786 94.55L477.221 94.252V93.725H476.221ZM444.093 101.045C434.495 101.045 426.079 99.193 418.816 95.52L417.914 97.305C425.499 101.142 434.235 103.045 444.093 103.045V101.045ZM418.82 95.522C411.65 91.854 406.121 86.613 402.209 79.787L400.473 80.782C404.583 87.951 410.402 93.462 417.91 97.303L418.82 95.522ZM402.211 79.792C398.299 72.883 396.325 64.781 396.325 55.4527H394.325C394.325 65.069 396.362 73.521 400.471 80.777L402.211 79.792ZM396.325 55.4527C396.325 46.1245 398.299 38.0674 402.209 31.246L400.473 30.2514C396.362 37.4247 394.325 45.8369 394.325 55.4527H396.325ZM402.211 31.2414C406.124 24.3313 411.654 19.0497 418.82 15.3829L417.91 13.6024C410.399 17.445 404.579 23.0008 400.471 30.2559L402.211 31.2414ZM418.824 15.3809C426.085 11.6255 434.499 9.73272 444.093 9.73272V7.73272C434.231 7.73272 425.493 9.67982 417.906 13.6045L418.824 15.3809ZM444.093 9.73272C450.428 9.73272 456.061 10.3664 460.999 11.6219L461.491 9.68351C456.36 8.37901 450.558 7.73272 444.093 7.73272V9.73272ZM460.999 11.6219C465.932 12.8762 470.484 14.8395 474.658 17.511L475.736 15.8264C471.377 13.0366 466.627 10.9892 461.491 9.68351L460.999 11.6219ZM474.197 16.6687V38.1727H476.197V16.6687H474.197ZM475.82 37.3901C471.958 34.3185 467.572 32.0833 462.672 30.6832L462.122 32.6062C466.779 33.9367 470.927 36.0535 474.574 38.9553L475.82 37.3901ZM462.676 30.6845C457.872 29.287 452.356 28.5967 446.141 28.5967V30.5967C452.214 30.5967 457.535 31.2717 462.118 32.6049L462.676 30.6845ZM446.141 28.5967C437.179 28.5967 430.114 30.949 425.095 35.7888L426.483 37.2285C431.021 32.8524 437.524 30.5967 446.141 30.5967V28.5967ZM425.102 35.7824C420.079 40.5362 417.621 47.1395 417.621 55.4527H419.621C419.621 47.5525 421.942 41.5265 426.476 37.235L425.102 35.7824ZM417.621 55.4527C417.621 63.767 420.079 70.408 425.095 75.245L426.483 73.805C421.942 69.426 419.621 63.352 419.621 55.4527H417.621ZM425.101 75.251C430.201 80.082 437.26 82.437 446.141 82.437V80.437C437.614 80.437 431.105 78.183 426.477 73.799L425.101 75.251ZM446.141 82.437C452.362 82.437 457.965 81.702 462.939 80.219L462.367 78.302C457.613 79.72 452.208 80.437 446.141 80.437V82.437ZM462.939 80.219C467.921 78.733 472.55 76.374 476.824 73.147L475.618 71.551C471.529 74.638 467.113 76.887 462.367 78.302L462.939 80.219ZM475.221 72.349V93.725H477.221V72.349H475.221ZM475.656 92.899C467.766 98.298 457.273 101.045 444.093 101.045V103.045C457.537 103.045 468.463 100.244 476.786 94.55L475.656 92.899ZM488.503 124.829L488.644 123.839L488.631 123.837L488.617 123.835L488.503 124.829ZM481.847 123.293H480.847V123.927L481.421 124.198L481.847 123.293ZM481.847 106.525L482.229 105.601L480.847 105.029V106.525H481.847ZM496.823 106.141L496.23 105.336L496.206 105.353L496.183 105.372L496.823 106.141ZM500.663 100.381L499.727 100.03L499.724 100.038L499.721 100.046L500.663 100.381ZM502.199 96.285L503.135 96.636L503.282 96.244L503.107 95.865L502.199 96.285ZM475.575 38.6847V37.6847H474.011L474.667 39.1043L475.575 38.6847ZM498.103 38.6847L499.031 38.3128L498.78 37.6847H498.103V38.6847ZM514.103 78.621L513.175 78.993L514.13 81.377L515.038 78.974L514.103 78.621ZM529.207 38.6847V37.6847H528.516L528.272 38.3309L529.207 38.6847ZM551.735 38.6847L552.665 39.0516L553.204 37.6847H551.735V38.6847ZM526.391 102.941L525.461 102.574L525.459 102.578L526.391 102.941ZM514.871 119.965L514.255 119.177L514.248 119.182L514.871 119.965ZM497.079 124.469C494.4 124.469 491.589 124.259 488.644 123.839L488.362 125.819C491.39 126.251 494.296 126.469 497.079 126.469V124.469ZM488.617 123.835C485.661 123.497 483.573 123 482.273 122.388L481.421 124.198C483.022 124.951 485.372 125.477 488.389 125.822L488.617 123.835ZM482.847 123.293V106.525H480.847V123.293H482.847ZM481.465 107.449C484.08 108.531 487.03 109.061 490.295 109.061V107.061C487.246 107.061 484.563 106.566 482.229 105.601L481.465 107.449ZM490.295 109.061C493.251 109.061 495.686 108.39 497.463 106.909L496.183 105.372C494.888 106.452 492.971 107.061 490.295 107.061V109.061ZM497.416 106.946C499.25 105.594 500.625 103.477 501.605 100.715L499.721 100.046C498.823 102.575 497.638 104.298 496.23 105.336L497.416 106.946ZM501.599 100.732L503.135 96.636L501.263 95.934L499.727 100.03L501.599 100.732ZM503.107 95.865L476.483 38.2651L474.667 39.1043L501.291 96.704L503.107 95.865ZM475.575 39.6847H498.103V37.6847H475.575V39.6847ZM497.175 39.0566L513.175 78.993L515.031 78.249L499.031 38.3128L497.175 39.0566ZM515.038 78.974L530.142 39.0384L528.272 38.3309L513.168 78.267L515.038 78.974ZM529.207 39.6847H551.735V37.6847H529.207V39.6847ZM550.805 38.3178L525.461 102.574L527.321 103.308L552.665 39.0516L550.805 38.3178ZM525.459 102.578C522.514 110.152 518.762 115.653 514.255 119.177L515.487 120.753C520.366 116.938 524.295 111.089 527.323 103.303L525.459 102.578ZM514.248 119.182C509.855 122.681 504.16 124.469 497.079 124.469V126.469C504.505 126.469 510.671 124.587 515.494 120.747L514.248 119.182ZM579.895 93.981L580.58 93.252L578.895 91.668V93.981H579.895ZM579.895 100.125V101.125H580.895V100.125H579.895ZM558.135 100.125H557.135V101.125H558.135V100.125ZM558.135 5.53271V4.53271H557.135V5.53271H558.135ZM580.663 5.53271H581.663V4.53271H580.663V5.53271ZM580.663 43.6767H579.663V45.8591L581.316 44.4341L580.663 43.6767ZM589.879 38.6847L590.189 39.6357L590.202 39.6312L589.879 38.6847ZM618.679 40.8607L618.189 41.7327L618.196 41.7363L618.679 40.8607ZM630.199 52.5087L629.32 52.9855L629.323 52.9918L630.199 52.5087ZM630.199 86.685L631.071 87.174L631.075 87.168L630.199 86.685ZM618.679 98.077L619.15 98.959L619.162 98.952L618.679 98.077ZM606.903 80.669L607.588 81.398L607.593 81.392L607.599 81.387L606.903 80.669ZM586.551 56.989L587.081 57.837L587.09 57.831L587.1 57.825L586.551 56.989ZM580.663 64.029L579.735 63.657L579.663 63.836V64.029H580.663ZM580.663 74.909H579.663V75.101L579.735 75.28L580.663 74.909ZM586.551 82.077L586.002 82.913L586.012 82.919L586.021 82.925L586.551 82.077ZM601.655 101.045C593.087 101.045 586.089 98.432 580.58 93.252L579.21 94.709C585.136 100.281 592.644 103.045 601.655 103.045V101.045ZM578.895 93.981V100.125H580.895V93.981H578.895ZM579.895 99.125H558.135V101.125H579.895V99.125ZM559.135 100.125V5.53271H557.135V100.125H559.135ZM558.135 6.53271H580.663V4.53271H558.135V6.53271ZM579.663 5.53271V43.6767H581.663V5.53271H579.663ZM581.316 44.4341C583.674 42.4016 586.623 40.7966 590.189 39.6357L589.569 37.7338C585.796 38.9622 582.602 40.6851 580.01 42.9193L581.316 44.4341ZM590.202 39.6312C593.849 38.3878 597.665 37.7647 601.655 37.7647V35.7647C597.453 35.7647 593.418 36.4216 589.556 37.7382L590.202 39.6312ZM601.655 37.7647C607.997 37.7647 613.498 39.0987 618.189 41.7327L619.169 39.9887C614.132 37.1613 608.284 35.7647 601.655 35.7647V37.7647ZM618.196 41.7363C622.976 44.3733 626.679 48.1165 629.32 52.9855L631.078 52.0319C628.258 46.8316 624.281 42.8094 619.162 39.9851L618.196 41.7363ZM629.323 52.9918C631.962 57.775 633.295 63.279 633.295 69.533H635.295C635.295 62.986 633.897 57.142 631.075 52.0256L629.323 52.9918ZM633.295 69.533C633.295 75.874 631.961 81.421 629.323 86.202L631.075 87.168C633.898 82.05 635.295 76.162 635.295 69.533H633.295ZM629.327 86.195C626.689 90.894 622.985 94.559 618.196 97.201L619.162 98.952C624.272 96.133 628.248 92.203 631.071 87.174L629.327 86.195ZM618.208 97.195C613.423 99.752 607.914 101.045 601.655 101.045V103.045C608.196 103.045 614.037 101.692 619.15 98.959L618.208 97.195ZM595.767 85.637C600.577 85.637 604.551 84.25 607.588 81.398L606.218 79.94C603.623 82.378 600.173 83.637 595.767 83.637V85.637ZM607.599 81.387C610.647 78.431 612.127 74.439 612.127 69.533H610.127C610.127 74.013 608.791 77.445 606.207 79.951L607.599 81.387ZM612.127 69.533C612.127 64.626 610.647 60.634 607.599 57.679L606.207 59.115C608.791 61.62 610.127 65.053 610.127 69.533H612.127ZM607.599 57.679C604.564 54.7359 600.586 53.3007 595.767 53.3007V55.3007C600.164 55.3007 603.61 56.596 606.207 59.115L607.599 57.679ZM595.767 53.3007C592.168 53.3007 588.904 54.2487 586.002 56.153L587.1 57.825C589.66 56.145 592.539 55.3007 595.767 55.3007V53.3007ZM586.021 56.141C583.11 57.96 581.008 60.473 579.735 63.657L581.591 64.4C582.707 61.611 584.53 59.431 587.081 57.837L586.021 56.141ZM579.663 64.029V74.909H581.663V64.029H579.663ZM579.735 75.28C581.006 78.46 583.103 81.01 586.002 82.913L587.1 81.241C584.537 79.559 582.709 77.331 581.591 74.537L579.735 75.28ZM586.021 82.925C588.92 84.737 592.178 85.637 595.767 85.637V83.637C592.529 83.637 589.643 82.83 587.081 81.229L586.021 82.925ZM650.94 93.597L650.304 94.368L650.308 94.372L650.94 93.597ZM649.788 45.5967L649.096 44.8747L649.091 44.8796L649.788 45.5967ZM695.1 40.9887L694.624 41.8682L694.633 41.8729L694.641 41.8773L695.1 40.9887ZM707.004 52.3807L706.126 52.8585L706.131 52.8677L706.136 52.8768L707.004 52.3807ZM711.1 76.957V77.957H712.1V76.957H711.1ZM662.076 76.957V75.957H660.795L661.106 77.199L662.076 76.957ZM694.716 85.661L694.558 84.673L694.555 84.674L694.716 85.661ZM705.724 82.845H706.724V81.383L705.362 81.913L705.724 82.845ZM705.724 97.693L706.1 98.619L706.724 98.366V97.693H705.724ZM693.82 100.765L693.661 99.777L693.651 99.779L693.641 99.781L693.82 100.765ZM689.852 62.877V63.877H690.96L690.847 62.775L689.852 62.877ZM666.172 55.1967L666.79 55.983L666.798 55.9763L666.807 55.9694L666.172 55.1967ZM662.076 62.877L661.081 62.772L660.965 63.877H662.076V62.877ZM679.356 101.045C667.474 101.045 658.252 98.264 651.572 92.821L650.308 94.372C657.452 100.193 667.174 103.045 679.356 103.045V101.045ZM651.576 92.825C645.02 87.416 641.7 79.743 641.7 69.661H639.7C639.7 80.229 643.207 88.513 650.304 94.368L651.576 92.825ZM641.7 69.661C641.7 59.718 644.658 51.9763 650.485 46.3138L649.091 44.8796C642.8 50.9931 639.7 59.294 639.7 69.661H641.7ZM650.48 46.3187C656.38 40.6645 664.929 37.7647 676.284 37.7647V35.7647C664.599 35.7647 655.484 38.7529 649.096 44.8747L650.48 46.3187ZM676.284 37.7647C683.496 37.7647 689.596 39.1481 694.624 41.8682L695.576 40.1091C690.193 37.1973 683.75 35.7647 676.284 35.7647V37.7647ZM694.641 41.8773C699.768 44.5234 703.583 48.1838 706.126 52.8585L707.882 51.9029C705.134 46.8496 701.013 42.9153 695.559 40.1001L694.641 41.8773ZM706.136 52.8768C708.772 57.49 710.1 62.734 710.1 68.637H712.1C712.1 62.422 710.698 56.829 707.872 51.8846L706.136 52.8768ZM710.1 68.637V76.957H712.1V68.637H710.1ZM711.1 75.957H662.076V77.957H711.1V75.957ZM661.106 77.199C662.039 80.931 664.394 83.64 668.066 85.293L668.886 83.469C665.732 82.049 663.82 79.809 663.046 76.714L661.106 77.199ZM668.066 85.293C671.661 86.91 676.471 87.685 682.428 87.685V85.685C676.609 85.685 672.118 84.923 668.886 83.469L668.066 85.293ZM682.428 87.685C686.496 87.685 690.646 87.339 694.877 86.648L694.555 84.674C690.424 85.348 686.382 85.685 682.428 85.685V87.685ZM694.874 86.648C699.19 85.958 702.932 85.004 706.086 83.777L705.362 81.913C702.372 83.075 698.775 83.999 694.558 84.673L694.874 86.648ZM704.724 82.845V97.693H706.724V82.845H704.724ZM705.348 96.766C702.283 98.009 698.394 99.017 693.661 99.777L693.979 101.752C698.803 100.977 702.85 99.937 706.1 98.619L705.348 96.766ZM693.641 99.781C689.009 100.623 684.248 101.045 679.356 101.045V103.045C684.363 103.045 689.244 102.613 693.999 101.749L693.641 99.781ZM690.847 62.775C690.481 59.207 688.999 56.345 686.374 54.2824L685.138 55.855C687.292 57.547 688.54 59.89 688.857 62.979L690.847 62.775ZM686.374 54.2824C683.752 52.2227 680.222 51.2527 675.9 51.2527V53.2527C679.94 53.2527 682.981 54.16 685.138 55.855L686.374 54.2824ZM675.9 51.2527C671.648 51.2527 668.156 52.2726 665.537 54.424L666.807 55.9694C668.966 54.1955 671.96 53.2527 675.9 53.2527V51.2527ZM665.554 54.4104C662.936 56.468 661.449 59.282 661.081 62.772L663.071 62.981C663.386 59.986 664.63 57.68 666.79 55.983L665.554 54.4104ZM662.076 63.877H689.852V61.877H662.076V63.877ZM720.01 38.6847V37.6847H719.01V38.6847H720.01ZM741.77 38.6847H742.77V37.6847H741.77V38.6847ZM741.77 46.3647H740.77V49.0261L742.523 47.0232L741.77 46.3647ZM751.882 40.0927L752.198 41.0414L752.207 41.0386L752.215 41.0357L751.882 40.0927ZM766.346 37.7887H767.346V36.7887H766.346V37.7887ZM766.346 55.0687V56.069H767.346V55.0687H766.346ZM751.37 57.501L751.021 56.564L751.015 56.566L751.37 57.501ZM742.538 64.797L741.644 64.349L741.538 64.561V64.797H742.538ZM742.538 100.125V101.125H743.538V100.125H742.538ZM720.01 100.125H719.01V101.125H720.01V100.125ZM720.01 39.6847H741.77V37.6847H720.01V39.6847ZM740.77 38.6847V46.3647H742.77V38.6847H740.77ZM742.523 47.0232C744.768 44.4573 747.971 42.4505 752.198 41.0414L751.566 39.144C747.089 40.6362 743.551 42.8107 741.017 45.7062L742.523 47.0232ZM752.215 41.0357C756.446 39.5425 761.152 38.7887 766.346 38.7887V36.7887C760.958 36.7887 756.022 37.5709 751.549 39.1497L752.215 41.0357ZM765.346 37.7887V55.0687H767.346V37.7887H765.346ZM766.346 54.0687C760.619 54.0687 755.506 54.8929 751.021 56.564L751.719 58.438C755.938 56.866 760.809 56.069 766.346 56.069V54.0687ZM751.015 56.566C746.577 58.252 743.404 60.828 741.644 64.349L743.432 65.244C744.915 62.28 747.63 59.992 751.725 58.435L751.015 56.566ZM741.538 64.797V100.125H743.538V64.797H741.538ZM742.538 99.125H720.01V101.125H742.538V99.125ZM721.01 100.125V38.6847H719.01V100.125H721.01Z" fill="#CE504B"/>
</g>
<path d="M55.8207 99.982C46.0927 99.982 37.5167 98.105 30.0927 94.35C22.7541 90.596 17.0794 85.22 13.0687 78.222C9.05806 71.14 7.05273 62.862 7.05273 53.3903C7.05273 43.9183 9.05806 35.6836 13.0687 28.6863C17.0794 21.6036 22.7541 16.185 30.0927 12.4303C37.5167 8.59028 46.0927 6.67028 55.8207 6.67028C62.2207 6.67028 67.9381 7.31028 72.9727 8.59028C78.0074 9.87028 82.6581 11.8756 86.9247 14.6063V36.1103C83.1701 33.1236 78.9034 30.9476 74.1247 29.5823C69.4314 28.217 64.0127 27.5343 57.8687 27.5343C49.0794 27.5343 42.2954 29.8383 37.5167 34.4463C32.7381 38.969 30.3487 45.2836 30.3487 53.3903C30.3487 61.497 32.7381 67.854 37.5167 72.462C42.3807 77.07 49.1647 79.374 57.8687 79.374C64.0127 79.374 69.5167 78.649 74.3807 77.198C79.2447 75.748 83.7674 73.444 87.9487 70.286V91.662C79.8421 97.209 69.1327 99.982 55.8207 99.982ZM93.6127 36.6223H115.373V44.3023C117.762 41.5716 121.133 39.481 125.485 38.0303C129.837 36.4943 134.658 35.7263 139.949 35.7263V53.0063C134.317 53.0063 129.325 53.817 124.973 55.4383C120.706 57.06 117.762 59.492 116.141 62.734V98.062H93.6127V36.6223ZM163.781 99.982C156.101 99.982 149.871 98.148 145.093 94.478C140.399 90.724 138.053 85.518 138.053 78.862C138.053 71.95 140.314 66.66 144.837 62.99C149.445 59.236 156.015 57.358 164.549 57.358C167.877 57.358 171.205 57.742 174.533 58.51C177.861 59.193 180.719 60.132 183.109 61.326V60.046C183.109 53.4756 177.733 50.1903 166.981 50.1903C159.471 50.1903 152.602 51.641 146.373 54.5423V39.0543C149.103 37.7743 152.687 36.7503 157.125 35.9823C161.562 35.129 166.17 34.7023 170.949 34.7023C182.383 34.7023 191.002 37.0063 196.805 41.6143C202.693 46.137 205.637 52.4943 205.637 60.686V98.062H184.517V92.814C182.213 95.033 179.311 96.782 175.813 98.062C172.314 99.342 168.303 99.982 163.781 99.982ZM170.437 86.158C173.082 86.158 175.557 85.646 177.861 84.622C180.165 83.513 181.914 82.105 183.109 80.398V75.022C179.439 72.548 175.258 71.31 170.565 71.31C167.578 71.31 165.274 71.95 163.653 73.23C162.031 74.51 161.221 76.388 161.221 78.862C161.221 81.166 161.989 82.958 163.525 84.238C165.146 85.518 167.45 86.158 170.437 86.158ZM213.928 85.774L243.112 52.2383H214.696V36.6223H272.808V48.9103L243.88 82.446H273.832V98.062H213.928V85.774ZM297.182 123.406C294.451 123.406 291.592 123.193 288.606 122.766C285.619 122.425 283.4 121.913 281.95 121.23V104.462C284.424 105.486 287.24 105.998 290.398 105.998C293.214 105.998 295.39 105.358 296.926 104.078C298.547 102.884 299.827 100.964 300.766 98.318L302.302 94.222L275.678 36.6223H298.206L314.206 76.558L329.31 36.6223H351.838L326.494 100.878C323.507 108.558 319.667 114.233 314.974 117.902C310.366 121.572 304.435 123.406 297.182 123.406ZM447.946 99.982C438.218 99.982 429.642 98.105 422.218 94.35C414.879 90.596 409.204 85.22 405.194 78.222C401.183 71.14 399.178 62.862 399.178 53.3903C399.178 43.9183 401.183 35.6836 405.194 28.6863C409.204 21.6036 414.879 16.185 422.218 12.4303C429.642 8.59028 438.218 6.67028 447.946 6.67028C454.346 6.67028 460.063 7.31028 465.098 8.59028C470.132 9.87028 474.783 11.8756 479.05 14.6063V36.1103C475.295 33.1236 471.028 30.9476 466.25 29.5823C461.556 28.217 456.138 27.5343 449.994 27.5343C441.204 27.5343 434.42 29.8383 429.642 34.4463C424.863 38.969 422.474 45.2836 422.474 53.3903C422.474 61.497 424.863 67.854 429.642 72.462C434.506 77.07 441.29 79.374 449.994 79.374C456.138 79.374 461.642 78.649 466.506 77.198C471.37 75.748 475.892 73.444 480.074 70.286V91.662C471.967 97.209 461.258 99.982 447.946 99.982ZM500.932 123.406C498.201 123.406 495.342 123.193 492.356 122.766C489.369 122.425 487.15 121.913 485.7 121.23V104.462C488.174 105.486 490.99 105.998 494.148 105.998C496.964 105.998 499.14 105.358 500.676 104.078C502.297 102.884 503.577 100.964 504.516 98.318L506.052 94.222L479.428 36.6223H501.956L517.956 76.558L533.06 36.6223H555.588L530.244 100.878C527.257 108.558 523.417 114.233 518.724 117.902C514.116 121.572 508.185 123.406 500.932 123.406ZM605.508 99.982C596.718 99.982 589.465 97.294 583.748 91.918V98.062H561.988V3.47028H584.516V41.6143C586.99 39.481 590.062 37.817 593.732 36.6223C597.486 35.3423 601.412 34.7023 605.508 34.7023C611.993 34.7023 617.668 36.0676 622.532 38.7983C627.481 41.529 631.321 45.4116 634.052 50.4463C636.782 55.3956 638.148 61.07 638.148 67.47C638.148 73.956 636.782 79.673 634.052 84.622C631.321 89.486 627.481 93.284 622.532 96.014C617.582 98.66 611.908 99.982 605.508 99.982ZM599.62 82.574C604.228 82.574 607.94 81.252 610.756 78.606C613.572 75.876 614.98 72.164 614.98 67.47C614.98 62.777 613.572 59.065 610.756 56.334C607.94 53.6036 604.228 52.2383 599.62 52.2383C596.206 52.2383 593.134 53.1343 590.404 54.9263C587.673 56.633 585.71 58.98 584.516 61.966V72.846C585.71 75.833 587.673 78.222 590.404 80.014C593.134 81.721 596.206 82.574 599.62 82.574ZM683.209 99.982C671.177 99.982 661.705 97.166 654.793 91.534C647.966 85.902 644.553 77.924 644.553 67.598C644.553 57.444 647.582 49.4223 653.641 43.5343C659.785 37.6463 668.617 34.7023 680.137 34.7023C687.475 34.7023 693.747 36.1103 698.953 38.9263C704.243 41.657 708.211 45.4543 710.857 50.3183C713.587 55.097 714.953 60.516 714.953 66.574V74.894H665.929C666.782 78.308 668.915 80.782 672.329 82.318C675.742 83.854 680.393 84.622 686.281 84.622C690.291 84.622 694.387 84.281 698.569 83.598C702.835 82.916 706.505 81.977 709.577 80.782V95.63C706.419 96.91 702.451 97.934 697.673 98.702C692.979 99.556 688.158 99.982 683.209 99.982ZM693.705 60.814C693.363 57.486 691.998 54.8836 689.609 53.0063C687.219 51.129 683.934 50.1903 679.753 50.1903C675.657 50.1903 672.414 51.1716 670.025 53.1343C667.635 55.0116 666.27 57.572 665.929 60.814H693.705ZM723.863 36.6223H745.623V44.3023C748.012 41.5716 751.383 39.481 755.735 38.0303C760.087 36.4943 764.908 35.7263 770.199 35.7263V53.0063C764.567 53.0063 759.575 53.817 755.223 55.4383C750.956 57.06 748.012 59.492 746.391 62.734V98.062H723.863V36.6223Z" fill="white"/>
</svg>
