<svg width="779" height="182" viewBox="0 0 779 182" fill="none" xmlns="http://www.w3.org/2000/svg">
<mask id="path-1-outside-1_72_6" maskUnits="userSpaceOnUse" x="9.70508" y="44" width="766" height="123" fill="black">
<rect fill="white" x="9.70508" y="44" width="766" height="123"/>
<path d="M59.6731 141.92C49.9451 141.92 41.3691 140.043 33.9451 136.288C26.6064 132.533 20.9317 127.157 16.9211 120.16C12.9104 113.077 10.9051 104.8 10.9051 95.328C10.9051 85.856 12.9104 77.6213 16.9211 70.624C20.9317 63.5413 26.6064 58.1227 33.9451 54.368C41.3691 50.528 49.9451 48.608 59.6731 48.608C66.0731 48.608 71.7904 49.248 76.8251 50.528C81.8597 51.808 86.5104 53.8133 90.7771 56.544V78.048C87.0224 75.0613 82.7557 72.8853 77.9771 71.52C73.2837 70.1547 67.8651 69.472 61.7211 69.472C52.9317 69.472 46.1477 71.776 41.3691 76.384C36.5904 80.9067 34.2011 87.2213 34.2011 95.328C34.2011 103.435 36.5904 109.792 41.3691 114.4C46.2331 119.008 53.0171 121.312 61.7211 121.312C67.8651 121.312 73.3691 120.587 78.2331 119.136C83.0971 117.685 87.6197 115.381 91.8011 112.224V133.6C83.6944 139.147 72.9851 141.92 59.6731 141.92ZM97.4651 78.56H119.225V86.24C121.614 83.5093 124.985 81.4187 129.337 79.968C133.689 78.432 138.51 77.664 143.801 77.664V94.944C138.169 94.944 133.177 95.7547 128.825 97.376C124.558 98.9973 121.614 101.429 119.993 104.672V140H97.4651V78.56ZM167.633 141.92C159.953 141.92 153.724 140.085 148.945 136.416C144.252 132.661 141.905 127.456 141.905 120.8C141.905 113.888 144.166 108.597 148.689 104.928C153.297 101.173 159.868 99.296 168.401 99.296C171.729 99.296 175.057 99.68 178.385 100.448C181.713 101.131 184.572 102.069 186.961 103.264V101.984C186.961 95.4133 181.585 92.128 170.833 92.128C163.324 92.128 156.454 93.5787 150.225 96.48V80.992C152.956 79.712 156.54 78.688 160.977 77.92C165.414 77.0667 170.022 76.64 174.801 76.64C186.236 76.64 194.854 78.944 200.657 83.552C206.545 88.0747 209.489 94.432 209.489 102.624V140H188.369V134.752C186.065 136.971 183.164 138.72 179.665 140C176.166 141.28 172.156 141.92 167.633 141.92ZM174.289 128.096C176.934 128.096 179.409 127.584 181.713 126.56C184.017 125.451 185.766 124.043 186.961 122.336V116.96C183.292 114.485 179.11 113.248 174.417 113.248C171.43 113.248 169.126 113.888 167.505 115.168C165.884 116.448 165.073 118.325 165.073 120.8C165.073 123.104 165.841 124.896 167.377 126.176C168.998 127.456 171.302 128.096 174.289 128.096ZM217.78 127.712L246.964 94.176H218.548V78.56H276.66V90.848L247.732 124.384H277.684V140H217.78V127.712ZM301.034 165.344C298.303 165.344 295.445 165.131 292.458 164.704C289.471 164.363 287.253 163.851 285.802 163.168V146.4C288.277 147.424 291.093 147.936 294.25 147.936C297.066 147.936 299.242 147.296 300.778 146.016C302.399 144.821 303.679 142.901 304.618 140.256L306.154 136.16L279.53 78.56H302.058L318.058 118.496L333.162 78.56H355.69L330.346 142.816C327.359 150.496 323.519 156.171 318.826 159.84C314.218 163.509 308.287 165.344 301.034 165.344ZM451.798 141.92C442.07 141.92 433.494 140.043 426.07 136.288C418.731 132.533 413.057 127.157 409.046 120.16C405.035 113.077 403.03 104.8 403.03 95.328C403.03 85.856 405.035 77.6213 409.046 70.624C413.057 63.5413 418.731 58.1227 426.07 54.368C433.494 50.528 442.07 48.608 451.798 48.608C458.198 48.608 463.915 49.248 468.95 50.528C473.985 51.808 478.635 53.8133 482.902 56.544V78.048C479.147 75.0613 474.881 72.8853 470.102 71.52C465.409 70.1547 459.99 69.472 453.846 69.472C445.057 69.472 438.273 71.776 433.494 76.384C428.715 80.9067 426.326 87.2213 426.326 95.328C426.326 103.435 428.715 109.792 433.494 114.4C438.358 119.008 445.142 121.312 453.846 121.312C459.99 121.312 465.494 120.587 470.358 119.136C475.222 117.685 479.745 115.381 483.926 112.224V133.6C475.819 139.147 465.11 141.92 451.798 141.92ZM504.784 165.344C502.053 165.344 499.195 165.131 496.208 164.704C493.221 164.363 491.003 163.851 489.552 163.168V146.4C492.027 147.424 494.843 147.936 498 147.936C500.816 147.936 502.992 147.296 504.528 146.016C506.149 144.821 507.429 142.901 508.368 140.256L509.904 136.16L483.28 78.56H505.808L521.808 118.496L536.912 78.56H559.44L534.096 142.816C531.109 150.496 527.269 156.171 522.576 159.84C517.968 163.509 512.037 165.344 504.784 165.344ZM609.36 141.92C600.571 141.92 593.317 139.232 587.6 133.856V140H565.84V45.408H588.368V83.552C590.843 81.4187 593.915 79.7547 597.584 78.56C601.339 77.28 605.264 76.64 609.36 76.64C615.845 76.64 621.52 78.0053 626.384 80.736C631.333 83.4667 635.173 87.3493 637.904 92.384C640.635 97.3333 642 103.008 642 109.408C642 115.893 640.635 121.611 637.904 126.56C635.173 131.424 631.333 135.221 626.384 137.952C621.435 140.597 615.76 141.92 609.36 141.92ZM603.472 124.512C608.08 124.512 611.792 123.189 614.608 120.544C617.424 117.813 618.832 114.101 618.832 109.408C618.832 104.715 617.424 101.003 614.608 98.272C611.792 95.5413 608.08 94.176 603.472 94.176C600.059 94.176 596.987 95.072 594.256 96.864C591.525 98.5707 589.563 100.917 588.368 103.904V114.784C589.563 117.771 591.525 120.16 594.256 121.952C596.987 123.659 600.059 124.512 603.472 124.512ZM687.061 141.92C675.029 141.92 665.557 139.104 658.645 133.472C651.818 127.84 648.405 119.861 648.405 109.536C648.405 99.3813 651.434 91.36 657.493 85.472C663.637 79.584 672.469 76.64 683.989 76.64C691.328 76.64 697.6 78.048 702.805 80.864C708.096 83.5947 712.064 87.392 714.709 92.256C717.44 97.0347 718.805 102.453 718.805 108.512V116.832H669.781C670.634 120.245 672.768 122.72 676.181 124.256C679.594 125.792 684.245 126.56 690.133 126.56C694.144 126.56 698.24 126.219 702.421 125.536C706.688 124.853 710.357 123.915 713.429 122.72V137.568C710.272 138.848 706.304 139.872 701.525 140.64C696.832 141.493 692.01 141.92 687.061 141.92ZM697.557 102.752C697.216 99.424 695.85 96.8213 693.461 94.944C691.072 93.0667 687.786 92.128 683.605 92.128C679.509 92.128 676.266 93.1093 673.877 95.072C671.488 96.9493 670.122 99.5093 669.781 102.752H697.557ZM727.715 78.56H749.475V86.24C751.864 83.5093 755.235 81.4187 759.587 79.968C763.939 78.432 768.76 77.664 774.051 77.664V94.944C768.419 94.944 763.427 95.7547 759.075 97.376C754.808 98.9973 751.864 101.429 750.243 104.672V140H727.715V78.56Z"/>
</mask>
<path d="M33.9451 136.288L33.4896 137.178L33.4938 137.18L33.9451 136.288ZM16.9211 120.16L16.0509 120.653L16.0535 120.657L16.9211 120.16ZM16.9211 70.624L17.7887 71.1213L17.7913 71.1167L16.9211 70.624ZM33.9451 54.368L34.4006 55.2583L34.4045 55.2562L33.9451 54.368ZM76.8251 50.528L77.0715 49.5588L77.0715 49.5588L76.8251 50.528ZM90.7771 56.544H91.7771V55.9967L91.3161 55.7017L90.7771 56.544ZM90.7771 78.048L90.1546 78.8306L91.7771 80.1212V78.048H90.7771ZM77.9771 71.52L77.6977 72.4802L77.7024 72.4815L77.9771 71.52ZM41.3691 76.384L42.0565 77.1103L42.0632 77.1038L41.3691 76.384ZM41.3691 114.4L40.6749 115.12L40.6813 115.126L41.3691 114.4ZM78.2331 119.136L77.9473 118.178L77.9473 118.178L78.2331 119.136ZM91.8011 112.224H92.8011V110.216L91.1985 111.426L91.8011 112.224ZM91.8011 133.6L92.3658 134.425L92.8011 134.127V133.6H91.8011ZM59.6731 140.92C50.0754 140.92 41.6586 139.068 34.3964 135.396L33.4938 137.18C41.0796 141.017 49.8148 142.92 59.6731 142.92V140.92ZM34.4006 135.398C27.2304 131.729 21.7007 126.488 17.7887 119.663L16.0535 120.657C20.1628 127.827 25.9824 133.337 33.4896 137.178L34.4006 135.398ZM17.7913 119.667C13.8787 112.758 11.9051 104.656 11.9051 95.328H9.90508C9.90508 104.944 11.9421 113.397 16.0509 120.653L17.7913 119.667ZM11.9051 95.328C11.9051 85.9998 13.8788 77.9427 17.7887 71.1213L16.0535 70.1267C11.942 77.3 9.90508 85.7122 9.90508 95.328H11.9051ZM17.7913 71.1167C21.7042 64.2066 27.2337 58.925 34.4006 55.2582L33.4896 53.4777C25.9792 57.3203 20.1593 62.8761 16.0509 70.1312L17.7913 71.1167ZM34.4045 55.2562C41.6649 51.5008 50.0787 49.608 59.6731 49.608V47.608C49.8114 47.608 41.0733 49.5552 33.4857 53.4798L34.4045 55.2562ZM59.6731 49.608C66.0084 49.608 71.6406 50.2417 76.5787 51.4972L77.0715 49.5588C71.9402 48.2543 66.1378 47.608 59.6731 47.608V49.608ZM76.5787 51.4972C81.5123 52.7515 86.0638 54.7148 90.238 57.3863L91.3161 55.7017C86.957 52.9119 82.2072 50.8645 77.0715 49.5588L76.5787 51.4972ZM89.7771 56.544V78.048H91.7771V56.544H89.7771ZM91.3996 77.2654C87.5382 74.1938 83.1524 71.9586 78.2518 70.5585L77.7024 72.4815C82.3591 73.812 86.5066 75.9288 90.1546 78.8306L91.3996 77.2654ZM78.2564 70.5598C73.4525 69.1623 67.9365 68.472 61.7211 68.472V70.472C67.7937 70.472 73.115 71.147 77.6978 72.4802L78.2564 70.5598ZM61.7211 68.472C52.7592 68.472 45.6941 70.8243 40.6749 75.6642L42.0632 77.1038C46.6014 72.7277 53.1043 70.472 61.7211 70.472V68.472ZM40.6817 75.6577C35.6588 80.4115 33.2011 87.0148 33.2011 95.328H35.2011C35.2011 87.4278 37.522 81.4018 42.0565 77.1103L40.6817 75.6577ZM33.2011 95.328C33.2011 103.642 35.6589 110.283 40.6749 115.12L42.0632 113.68C37.5219 109.301 35.2011 103.227 35.2011 95.328H33.2011ZM40.6813 115.126C45.7815 119.958 52.8403 122.312 61.7211 122.312V120.312C53.1938 120.312 46.6846 118.058 42.0568 113.674L40.6813 115.126ZM61.7211 122.312C67.9423 122.312 73.545 121.578 78.5189 120.094L77.9473 118.178C73.1931 119.596 67.7879 120.312 61.7211 120.312V122.312ZM78.5189 120.094C83.5009 118.608 88.1303 116.249 92.4037 113.022L91.1985 111.426C87.1092 114.514 82.6933 116.762 77.9473 118.178L78.5189 120.094ZM90.8011 112.224V133.6H92.8011V112.224H90.8011ZM91.2364 132.775C83.3457 138.174 72.8535 140.92 59.6731 140.92V142.92C73.1167 142.92 84.0431 140.12 92.3658 134.425L91.2364 132.775ZM97.4651 78.56V77.56H96.4651V78.56H97.4651ZM119.225 78.56H120.225V77.56H119.225V78.56ZM119.225 86.24H118.225V88.9014L119.978 86.8985L119.225 86.24ZM129.337 79.968L129.653 80.9167L129.662 80.9139L129.67 80.911L129.337 79.968ZM143.801 77.664H144.801V76.664H143.801V77.664ZM143.801 94.944V95.944H144.801V94.944H143.801ZM128.825 97.376L128.476 96.4389L128.47 96.4412L128.825 97.376ZM119.993 104.672L119.099 104.225L118.993 104.436V104.672H119.993ZM119.993 140V141H120.993V140H119.993ZM97.4651 140H96.4651V141H97.4651V140ZM97.4651 79.56H119.225V77.56H97.4651V79.56ZM118.225 78.56V86.24H120.225V78.56H118.225ZM119.978 86.8985C122.223 84.3326 125.426 82.3258 129.653 80.9167L129.021 79.0193C124.544 80.5116 121.006 82.686 118.473 85.5815L119.978 86.8985ZM129.67 80.911C133.901 79.4178 138.607 78.664 143.801 78.664V76.664C138.413 76.664 133.478 77.4462 129.004 79.025L129.67 80.911ZM142.801 77.664V94.944H144.801V77.664H142.801ZM143.801 93.944C138.074 93.944 132.961 94.7682 128.476 96.4389L129.174 98.3131C133.394 96.7412 138.264 95.944 143.801 95.944V93.944ZM128.47 96.4412C124.032 98.1277 120.859 100.704 119.099 104.225L120.888 105.119C122.37 102.155 125.085 99.867 129.18 98.3108L128.47 96.4412ZM118.993 104.672V140H120.993V104.672H118.993ZM119.993 139H97.4651V141H119.993V139ZM98.4651 140V78.56H96.4651V140H98.4651ZM148.945 136.416L148.32 137.197L148.328 137.203L148.336 137.209L148.945 136.416ZM148.689 104.928L149.319 105.705L149.321 105.703L148.689 104.928ZM178.385 100.448L178.16 101.422L178.172 101.425L178.184 101.428L178.385 100.448ZM186.961 103.264L186.514 104.158L187.961 104.882V103.264H186.961ZM150.225 96.48H149.225V98.0489L150.647 97.3865L150.225 96.48ZM150.225 80.992L149.801 80.0865L149.225 80.3563V80.992H150.225ZM160.977 77.92L161.148 78.9053L161.157 78.9038L161.166 78.902L160.977 77.92ZM200.657 83.552L200.035 84.3351L200.042 84.3401L200.048 84.345L200.657 83.552ZM209.489 140V141H210.489V140H209.489ZM188.369 140H187.369V141H188.369V140ZM188.369 134.752H189.369V132.401L187.675 134.032L188.369 134.752ZM181.713 126.56L182.119 127.474L182.133 127.468L182.147 127.461L181.713 126.56ZM186.961 122.336L187.78 122.909L187.961 122.651V122.336H186.961ZM186.961 116.96H187.961V116.428L187.52 116.131L186.961 116.96ZM167.505 115.168L166.885 114.383L166.885 114.383L167.505 115.168ZM167.377 126.176L166.737 126.944L166.747 126.953L166.757 126.961L167.377 126.176ZM167.633 140.92C160.112 140.92 154.115 139.125 149.554 135.623L148.336 137.209C153.332 141.046 159.794 142.92 167.633 142.92V140.92ZM149.57 135.635C145.141 132.092 142.905 127.189 142.905 120.8H140.905C140.905 127.723 143.362 133.23 148.32 137.197L149.57 135.635ZM142.905 120.8C142.905 114.127 145.075 109.148 149.319 105.705L148.059 104.151C143.258 108.047 140.905 113.649 140.905 120.8H142.905ZM149.321 105.703C153.687 102.146 160 100.296 168.401 100.296V98.296C159.736 98.296 152.907 100.201 148.057 104.153L149.321 105.703ZM168.401 100.296C171.651 100.296 174.904 100.671 178.16 101.422L178.61 99.4736C175.21 98.689 171.807 98.296 168.401 98.296V100.296ZM178.184 101.428C181.449 102.097 184.22 103.012 186.514 104.158L187.408 102.37C184.923 101.127 181.978 100.164 178.586 99.4684L178.184 101.428ZM187.961 103.264V101.984H185.961V103.264H187.961ZM187.961 101.984C187.961 98.3685 186.451 95.5723 183.451 93.7387C180.53 91.9541 176.278 91.128 170.833 91.128V93.128C176.14 93.128 179.952 93.9446 182.408 95.4453C184.783 96.897 185.961 99.0288 185.961 101.984H187.961ZM170.833 91.128C163.192 91.128 156.176 92.605 149.803 95.5735L150.647 97.3865C156.733 94.5523 163.456 93.128 170.833 93.128V91.128ZM151.225 96.48V80.992H149.225V96.48H151.225ZM150.65 81.8975C153.27 80.6689 156.759 79.6648 161.148 78.9053L160.807 76.9346C156.32 77.7112 152.641 78.7551 149.801 80.0865L150.65 81.8975ZM161.166 78.902C165.538 78.0613 170.082 77.64 174.801 77.64V75.64C169.963 75.64 165.291 76.072 160.788 76.938L161.166 78.902ZM174.801 77.64C186.126 77.64 194.483 79.9258 200.035 84.3351L201.279 82.7689C195.226 77.9622 186.345 75.64 174.801 75.64V77.64ZM200.048 84.345C205.662 88.6571 208.489 94.7058 208.489 102.624H210.489C210.489 94.1582 207.428 87.4923 201.266 82.7589L200.048 84.345ZM208.489 102.624V140H210.489V102.624H208.489ZM209.489 139H188.369V141H209.489V139ZM189.369 140V134.752H187.369V140H189.369ZM187.675 134.032C185.487 136.139 182.711 137.821 179.321 139.061L180.009 140.939C183.617 139.619 186.643 137.802 189.063 135.472L187.675 134.032ZM179.321 139.061C175.954 140.293 172.063 140.92 167.633 140.92V142.92C172.249 142.92 176.379 142.267 180.009 140.939L179.321 139.061ZM174.289 129.096C177.067 129.096 179.681 128.557 182.119 127.474L181.307 125.646C179.137 126.611 176.802 127.096 174.289 127.096V129.096ZM182.147 127.461C184.57 126.294 186.467 124.785 187.78 122.909L186.142 121.763C185.065 123.3 183.464 124.607 181.279 125.659L182.147 127.461ZM187.961 122.336V116.96H185.961V122.336H187.961ZM187.52 116.131C183.675 113.538 179.297 112.248 174.417 112.248V114.248C178.924 114.248 182.908 115.433 186.402 117.789L187.52 116.131ZM174.417 112.248C171.303 112.248 168.747 112.914 166.885 114.383L168.125 115.953C169.506 114.862 171.558 114.248 174.417 114.248V112.248ZM166.885 114.383C164.975 115.891 164.073 118.087 164.073 120.8H166.073C166.073 118.564 166.792 117.005 168.125 115.953L166.885 114.383ZM164.073 120.8C164.073 123.35 164.937 125.444 166.737 126.944L168.017 125.408C166.745 124.348 166.073 122.858 166.073 120.8H164.073ZM166.757 126.961C168.619 128.43 171.175 129.096 174.289 129.096V127.096C171.43 127.096 169.378 126.482 167.997 125.391L166.757 126.961ZM217.78 127.712L217.026 127.056L216.78 127.338V127.712H217.78ZM246.964 94.176L247.718 94.8325L249.16 93.176H246.964V94.176ZM218.548 94.176H217.548V95.176H218.548V94.176ZM218.548 78.56V77.56H217.548V78.56H218.548ZM276.66 78.56H277.66V77.56H276.66V78.56ZM276.66 90.848L277.417 91.5012L277.66 91.2197V90.848H276.66ZM247.732 124.384L246.975 123.731L245.549 125.384H247.732V124.384ZM277.684 124.384H278.684V123.384H277.684V124.384ZM277.684 140V141H278.684V140H277.684ZM217.78 140H216.78V141H217.78V140ZM218.534 128.368L247.718 94.8325L246.21 93.5195L217.026 127.056L218.534 128.368ZM246.964 93.176H218.548V95.176H246.964V93.176ZM219.548 94.176V78.56H217.548V94.176H219.548ZM218.548 79.56H276.66V77.56H218.548V79.56ZM275.66 78.56V90.848H277.66V78.56H275.66ZM275.903 90.1948L246.975 123.731L248.489 125.037L277.417 91.5012L275.903 90.1948ZM247.732 125.384H277.684V123.384H247.732V125.384ZM276.684 124.384V140H278.684V124.384H276.684ZM277.684 139H217.78V141H277.684V139ZM218.78 140V127.712H216.78V140H218.78ZM292.458 164.704L292.599 163.714L292.586 163.712L292.572 163.71L292.458 164.704ZM285.802 163.168H284.802V163.803L285.376 164.073L285.802 163.168ZM285.802 146.4L286.184 145.476L284.802 144.904V146.4H285.802ZM300.778 146.016L300.185 145.211L300.161 145.229L300.138 145.248L300.778 146.016ZM304.618 140.256L303.682 139.905L303.679 139.913L303.676 139.922L304.618 140.256ZM306.154 136.16L307.09 136.511L307.237 136.12L307.062 135.74L306.154 136.16ZM279.53 78.56V77.56H277.966L278.622 78.9796L279.53 78.56ZM302.058 78.56L302.986 78.1881L302.735 77.56H302.058V78.56ZM318.058 118.496L317.13 118.868L318.085 121.252L318.993 118.85L318.058 118.496ZM333.162 78.56V77.56H332.471L332.227 78.2062L333.162 78.56ZM355.69 78.56L356.62 78.9269L357.159 77.56H355.69V78.56ZM330.346 142.816L329.416 142.449L329.414 142.454L330.346 142.816ZM318.826 159.84L318.21 159.052L318.203 159.058L318.826 159.84ZM301.034 164.344C298.355 164.344 295.544 164.135 292.599 163.714L292.317 165.694C295.345 166.127 298.251 166.344 301.034 166.344V164.344ZM292.572 163.71C289.616 163.373 287.528 162.875 286.228 162.263L285.376 164.073C286.977 164.826 289.327 165.353 292.345 165.698L292.572 163.71ZM286.802 163.168V146.4H284.802V163.168H286.802ZM285.42 147.324C288.035 148.406 290.985 148.936 294.25 148.936V146.936C291.201 146.936 288.518 146.442 286.184 145.476L285.42 147.324ZM294.25 148.936C297.206 148.936 299.641 148.265 301.418 146.784L300.138 145.248C298.843 146.327 296.926 146.936 294.25 146.936V148.936ZM301.371 146.821C303.205 145.47 304.58 143.352 305.561 140.59L303.676 139.922C302.778 142.45 301.594 144.173 300.185 145.211L301.371 146.821ZM305.554 140.607L307.09 136.511L305.218 135.809L303.682 139.905L305.554 140.607ZM307.062 135.74L280.438 78.1404L278.622 78.9796L305.246 136.58L307.062 135.74ZM279.53 79.56H302.058V77.56H279.53V79.56ZM301.13 78.9319L317.13 118.868L318.986 118.124L302.986 78.1881L301.13 78.9319ZM318.993 118.85L334.097 78.9137L332.227 78.2062L317.123 118.142L318.993 118.85ZM333.162 79.56H355.69V77.56H333.162V79.56ZM354.76 78.1931L329.416 142.449L331.276 143.183L356.62 78.9269L354.76 78.1931ZM329.414 142.454C326.469 150.027 322.718 155.528 318.21 159.052L319.442 160.628C324.321 156.813 328.25 150.965 331.278 143.178L329.414 142.454ZM318.203 159.058C313.81 162.556 308.115 164.344 301.034 164.344V166.344C308.46 166.344 314.626 164.463 319.449 160.622L318.203 159.058ZM426.07 136.288L425.615 137.178L425.619 137.18L426.07 136.288ZM409.046 120.16L408.176 120.653L408.178 120.657L409.046 120.16ZM409.046 70.624L409.914 71.1213L409.916 71.1167L409.046 70.624ZM426.07 54.368L426.526 55.2583L426.53 55.2562L426.07 54.368ZM468.95 50.528L469.196 49.5588L469.196 49.5588L468.95 50.528ZM482.902 56.544H483.902V55.9967L483.441 55.7017L482.902 56.544ZM482.902 78.048L482.28 78.8306L483.902 80.1212V78.048H482.902ZM470.102 71.52L469.823 72.4802L469.827 72.4815L470.102 71.52ZM433.494 76.384L434.181 77.1103L434.188 77.1038L433.494 76.384ZM433.494 114.4L432.8 115.12L432.806 115.126L433.494 114.4ZM470.358 119.136L470.072 118.178L470.072 118.178L470.358 119.136ZM483.926 112.224H484.926V110.216L483.323 111.426L483.926 112.224ZM483.926 133.6L484.491 134.425L484.926 134.127V133.6H483.926ZM451.798 140.92C442.2 140.92 433.784 139.068 426.521 135.396L425.619 137.18C433.205 141.017 441.94 142.92 451.798 142.92V140.92ZM426.526 135.398C419.355 131.729 413.826 126.488 409.914 119.663L408.178 120.657C412.288 127.827 418.107 133.337 425.615 137.178L426.526 135.398ZM409.916 119.667C406.004 112.758 404.03 104.656 404.03 95.328H402.03C402.03 104.944 404.067 113.397 408.176 120.653L409.916 119.667ZM404.03 95.328C404.03 85.9998 406.004 77.9427 409.914 71.1213L408.178 70.1267C404.067 77.3 402.03 85.7122 402.03 95.328H404.03ZM409.916 71.1167C413.829 64.2066 419.359 58.925 426.526 55.2582L425.615 53.4777C418.104 57.3203 412.284 62.8761 408.176 70.1312L409.916 71.1167ZM426.53 55.2562C433.79 51.5008 442.204 49.608 451.798 49.608V47.608C441.936 47.608 433.198 49.5552 425.611 53.4798L426.53 55.2562ZM451.798 49.608C458.133 49.608 463.766 50.2417 468.704 51.4972L469.196 49.5588C464.065 48.2543 458.263 47.608 451.798 47.608V49.608ZM468.704 51.4972C473.637 52.7515 478.189 54.7148 482.363 57.3863L483.441 55.7017C479.082 52.9119 474.332 50.8645 469.196 49.5588L468.704 51.4972ZM481.902 56.544V78.048H483.902V56.544H481.902ZM483.525 77.2654C479.663 74.1938 475.277 71.9586 470.377 70.5585L469.827 72.4815C474.484 73.812 478.632 75.9288 482.28 78.8306L483.525 77.2654ZM470.381 70.5598C465.578 69.1623 460.062 68.472 453.846 68.472V70.472C459.919 70.472 465.24 71.147 469.823 72.4802L470.381 70.5598ZM453.846 68.472C444.884 68.472 437.819 70.8243 432.8 75.6642L434.188 77.1038C438.726 72.7277 445.229 70.472 453.846 70.472V68.472ZM432.807 75.6577C427.784 80.4115 425.326 87.0148 425.326 95.328H427.326C427.326 87.4278 429.647 81.4018 434.181 77.1103L432.807 75.6577ZM425.326 95.328C425.326 103.642 427.784 110.283 432.8 115.12L434.188 113.68C429.647 109.301 427.326 103.227 427.326 95.328H425.326ZM432.806 115.126C437.907 119.958 444.965 122.312 453.846 122.312V120.312C445.319 120.312 438.81 118.058 434.182 113.674L432.806 115.126ZM453.846 122.312C460.067 122.312 465.67 121.578 470.644 120.094L470.072 118.178C465.318 119.596 459.913 120.312 453.846 120.312V122.312ZM470.644 120.094C475.626 118.608 480.255 116.249 484.529 113.022L483.323 111.426C479.234 114.514 474.818 116.762 470.072 118.178L470.644 120.094ZM482.926 112.224V133.6H484.926V112.224H482.926ZM483.361 132.775C475.471 138.174 464.979 140.92 451.798 140.92V142.92C465.242 142.92 476.168 140.12 484.491 134.425L483.361 132.775ZM496.208 164.704L496.349 163.714L496.336 163.712L496.322 163.71L496.208 164.704ZM489.552 163.168H488.552V163.803L489.126 164.073L489.552 163.168ZM489.552 146.4L489.934 145.476L488.552 144.904V146.4H489.552ZM504.528 146.016L503.935 145.211L503.911 145.229L503.888 145.248L504.528 146.016ZM508.368 140.256L507.432 139.905L507.429 139.913L507.426 139.922L508.368 140.256ZM509.904 136.16L510.84 136.511L510.987 136.12L510.812 135.74L509.904 136.16ZM483.28 78.56V77.56H481.716L482.372 78.9796L483.28 78.56ZM505.808 78.56L506.736 78.1881L506.485 77.56H505.808V78.56ZM521.808 118.496L520.88 118.868L521.835 121.252L522.743 118.85L521.808 118.496ZM536.912 78.56V77.56H536.221L535.977 78.2062L536.912 78.56ZM559.44 78.56L560.37 78.9269L560.909 77.56H559.44V78.56ZM534.096 142.816L533.166 142.449L533.164 142.454L534.096 142.816ZM522.576 159.84L521.96 159.052L521.953 159.058L522.576 159.84ZM504.784 164.344C502.105 164.344 499.294 164.135 496.349 163.714L496.067 165.694C499.095 166.127 502.001 166.344 504.784 166.344V164.344ZM496.322 163.71C493.366 163.373 491.278 162.875 489.978 162.263L489.126 164.073C490.727 164.826 493.077 165.353 496.095 165.698L496.322 163.71ZM490.552 163.168V146.4H488.552V163.168H490.552ZM489.17 147.324C491.785 148.406 494.735 148.936 498 148.936V146.936C494.951 146.936 492.268 146.442 489.934 145.476L489.17 147.324ZM498 148.936C500.956 148.936 503.391 148.265 505.168 146.784L503.888 145.248C502.593 146.327 500.676 146.936 498 146.936V148.936ZM505.121 146.821C506.955 145.47 508.33 143.352 509.311 140.59L507.426 139.922C506.528 142.45 505.344 144.173 503.935 145.211L505.121 146.821ZM509.304 140.607L510.84 136.511L508.968 135.809L507.432 139.905L509.304 140.607ZM510.812 135.74L484.188 78.1404L482.372 78.9796L508.996 136.58L510.812 135.74ZM483.28 79.56H505.808V77.56H483.28V79.56ZM504.88 78.9319L520.88 118.868L522.736 118.124L506.736 78.1881L504.88 78.9319ZM522.743 118.85L537.847 78.9137L535.977 78.2062L520.873 118.142L522.743 118.85ZM536.912 79.56H559.44V77.56H536.912V79.56ZM558.51 78.1931L533.166 142.449L535.026 143.183L560.37 78.9269L558.51 78.1931ZM533.164 142.454C530.219 150.027 526.468 155.528 521.96 159.052L523.192 160.628C528.071 156.813 532 150.965 535.028 143.178L533.164 142.454ZM521.953 159.058C517.56 162.556 511.865 164.344 504.784 164.344V166.344C512.21 166.344 518.376 164.463 523.199 160.622L521.953 159.058ZM587.6 133.856L588.285 133.127L586.6 131.543V133.856H587.6ZM587.6 140V141H588.6V140H587.6ZM565.84 140H564.84V141H565.84V140ZM565.84 45.408V44.408H564.84V45.408H565.84ZM588.368 45.408H589.368V44.408H588.368V45.408ZM588.368 83.552H587.368V85.7344L589.021 84.3094L588.368 83.552ZM597.584 78.56L597.894 79.511L597.907 79.5065L597.584 78.56ZM626.384 80.736L625.895 81.608L625.901 81.6116L626.384 80.736ZM637.904 92.384L637.025 92.8608L637.029 92.8671L637.904 92.384ZM637.904 126.56L638.776 127.05L638.78 127.043L637.904 126.56ZM626.384 137.952L626.855 138.834L626.867 138.828L626.384 137.952ZM614.608 120.544L615.293 121.273L615.299 121.267L615.304 121.262L614.608 120.544ZM614.608 98.272L615.304 97.5541L615.304 97.5541L614.608 98.272ZM594.256 96.864L594.786 97.712L594.795 97.7061L594.805 97.7L594.256 96.864ZM588.368 103.904L587.44 103.533L587.368 103.711V103.904H588.368ZM588.368 114.784H587.368V114.977L587.44 115.155L588.368 114.784ZM594.256 121.952L593.707 122.788L593.717 122.794L593.726 122.8L594.256 121.952ZM609.36 140.92C600.792 140.92 593.794 138.308 588.285 133.127L586.915 134.585C592.841 140.156 600.349 142.92 609.36 142.92V140.92ZM586.6 133.856V140H588.6V133.856H586.6ZM587.6 139H565.84V141H587.6V139ZM566.84 140V45.408H564.84V140H566.84ZM565.84 46.408H588.368V44.408H565.84V46.408ZM587.368 45.408V83.552H589.368V45.408H587.368ZM589.021 84.3094C591.379 82.2769 594.328 80.6718 597.894 79.5109L597.274 77.6091C593.501 78.8375 590.307 80.5604 587.715 82.7946L589.021 84.3094ZM597.907 79.5065C601.554 78.2631 605.37 77.64 609.36 77.64V75.64C605.158 75.64 601.123 76.2969 597.261 77.6135L597.907 79.5065ZM609.36 77.64C615.702 77.64 621.203 78.974 625.895 81.608L626.874 79.864C621.837 77.0366 615.989 75.64 609.36 75.64V77.64ZM625.901 81.6116C630.681 84.2486 634.384 87.9918 637.025 92.8608L638.783 91.9072C635.963 86.7069 631.986 82.6847 626.867 79.8604L625.901 81.6116ZM637.029 92.8671C639.667 97.6498 641 103.154 641 109.408H643C643 102.862 641.602 97.0168 638.78 91.9009L637.029 92.8671ZM641 109.408C641 115.75 639.666 121.296 637.029 126.077L638.78 127.043C641.603 121.925 643 116.037 643 109.408H641ZM637.032 126.07C634.394 130.77 630.69 134.434 625.901 137.076L626.867 138.828C631.977 136.008 635.953 132.078 638.776 127.05L637.032 126.07ZM625.913 137.07C621.128 139.628 615.619 140.92 609.36 140.92V142.92C615.901 142.92 621.742 141.567 626.855 138.834L625.913 137.07ZM603.472 125.512C608.282 125.512 612.257 124.125 615.293 121.273L613.923 119.815C611.328 122.254 607.878 123.512 603.472 123.512V125.512ZM615.304 121.262C618.352 118.306 619.832 114.315 619.832 109.408H617.832C617.832 113.888 616.496 117.32 613.912 119.826L615.304 121.262ZM619.832 109.408C619.832 104.501 618.352 100.51 615.304 97.5541L613.912 98.9899C616.496 101.496 617.832 104.928 617.832 109.408H619.832ZM615.304 97.5541C612.269 94.6112 608.291 93.176 603.472 93.176V95.176C607.869 95.176 611.315 96.4714 613.912 98.9899L615.304 97.5541ZM603.472 93.176C599.873 93.176 596.609 94.124 593.707 96.028L594.805 97.7C597.365 96.02 600.244 95.176 603.472 95.176V93.176ZM593.726 96.016C590.816 97.8351 588.713 100.349 587.44 103.533L589.297 104.275C590.412 101.486 592.235 99.3063 594.786 97.712L593.726 96.016ZM587.368 103.904V114.784H589.368V103.904H587.368ZM587.44 115.155C588.712 118.335 590.808 120.886 593.707 122.788L594.805 121.116C592.242 119.434 590.414 117.206 589.297 114.413L587.44 115.155ZM593.726 122.8C596.625 124.612 599.883 125.512 603.472 125.512V123.512C600.234 123.512 597.348 122.705 594.786 121.104L593.726 122.8ZM658.645 133.472L658.009 134.243L658.013 134.247L658.645 133.472ZM657.493 85.472L656.801 84.75L656.796 84.7549L657.493 85.472ZM702.805 80.864L702.329 81.7435L702.338 81.7482L702.346 81.7526L702.805 80.864ZM714.709 92.256L713.831 92.7338L713.836 92.743L713.841 92.7521L714.709 92.256ZM718.805 116.832V117.832H719.805V116.832H718.805ZM669.781 116.832V115.832H668.5L668.811 117.075L669.781 116.832ZM676.181 124.256L676.591 123.344L676.591 123.344L676.181 124.256ZM702.421 125.536L702.263 124.549L702.26 124.549L702.421 125.536ZM713.429 122.72H714.429V121.258L713.067 121.788L713.429 122.72ZM713.429 137.568L713.805 138.495L714.429 138.242V137.568H713.429ZM701.525 140.64L701.366 139.653L701.356 139.654L701.346 139.656L701.525 140.64ZM697.557 102.752V103.752H698.665L698.552 102.65L697.557 102.752ZM693.461 94.944L694.079 94.1577L694.079 94.1577L693.461 94.944ZM673.877 95.072L674.495 95.8583L674.503 95.8516L674.512 95.8447L673.877 95.072ZM669.781 102.752L668.787 102.647L668.67 103.752H669.781V102.752ZM687.061 140.92C675.179 140.92 665.957 138.14 659.277 132.697L658.013 134.247C665.158 140.068 674.879 142.92 687.061 142.92V140.92ZM659.281 132.701C652.725 127.291 649.405 119.618 649.405 109.536H647.405C647.405 120.104 650.912 128.389 658.009 134.243L659.281 132.701ZM649.405 109.536C649.405 99.5929 652.363 91.8516 658.19 86.1891L656.796 84.7549C650.505 90.8684 647.405 99.1698 647.405 109.536H649.405ZM658.185 86.194C664.085 80.5398 672.634 77.64 683.989 77.64V75.64C672.304 75.64 663.189 78.6282 656.801 84.75L658.185 86.194ZM683.989 77.64C691.201 77.64 697.301 79.0234 702.329 81.7435L703.281 79.9845C697.898 77.0726 691.455 75.64 683.989 75.64V77.64ZM702.346 81.7526C707.473 84.3987 711.288 88.0591 713.831 92.7338L715.588 91.7782C712.839 86.7249 708.718 82.7906 703.264 79.9754L702.346 81.7526ZM713.841 92.7521C716.477 97.3648 717.805 102.609 717.805 108.512H719.805C719.805 102.297 718.403 96.7045 715.577 91.7599L713.841 92.7521ZM717.805 108.512V116.832H719.805V108.512H717.805ZM718.805 115.832H669.781V117.832H718.805V115.832ZM668.811 117.075C669.744 120.806 672.099 123.516 675.771 125.168L676.591 123.344C673.437 121.924 671.525 119.685 670.751 116.589L668.811 117.075ZM675.771 125.168C679.366 126.786 684.176 127.56 690.133 127.56V125.56C684.314 125.56 679.823 124.798 676.591 123.344L675.771 125.168ZM690.133 127.56C694.201 127.56 698.351 127.214 702.582 126.523L702.26 124.549C698.129 125.224 694.087 125.56 690.133 125.56V127.56ZM702.579 126.523C706.895 125.833 710.637 124.879 713.792 123.652L713.067 121.788C710.077 122.95 706.48 123.874 702.263 124.549L702.579 126.523ZM712.429 122.72V137.568H714.429V122.72H712.429ZM713.053 136.641C709.988 137.884 706.099 138.892 701.366 139.653L701.684 141.627C706.508 140.852 710.555 139.812 713.805 138.495L713.053 136.641ZM701.346 139.656C696.714 140.498 691.953 140.92 687.061 140.92V142.92C692.068 142.92 696.949 142.488 701.704 141.624L701.346 139.656ZM698.552 102.65C698.186 99.0823 696.704 96.2204 694.079 94.1577L692.843 95.7303C694.997 97.4223 696.246 99.7657 696.562 102.854L698.552 102.65ZM694.079 94.1577C691.458 92.098 687.927 91.128 683.605 91.128V93.128C687.646 93.128 690.686 94.0353 692.843 95.7303L694.079 94.1577ZM683.605 91.128C679.353 91.128 675.861 92.1479 673.242 94.2993L674.512 95.8447C676.671 94.0708 679.665 93.128 683.605 93.128V91.128ZM673.259 94.2857C670.641 96.3431 669.154 99.1577 668.787 102.647L670.776 102.857C671.091 99.861 672.335 97.5556 674.495 95.8583L673.259 94.2857ZM669.781 103.752H697.557V101.752H669.781V103.752ZM727.715 78.56V77.56H726.715V78.56H727.715ZM749.475 78.56H750.475V77.56H749.475V78.56ZM749.475 86.24H748.475V88.9014L750.228 86.8985L749.475 86.24ZM759.587 79.968L759.903 80.9167L759.912 80.9139L759.92 80.911L759.587 79.968ZM774.051 77.664H775.051V76.664H774.051V77.664ZM774.051 94.944V95.944H775.051V94.944H774.051ZM759.075 97.376L758.726 96.4389L758.72 96.4412L759.075 97.376ZM750.243 104.672L749.349 104.225L749.243 104.436V104.672H750.243ZM750.243 140V141H751.243V140H750.243ZM727.715 140H726.715V141H727.715V140ZM727.715 79.56H749.475V77.56H727.715V79.56ZM748.475 78.56V86.24H750.475V78.56H748.475ZM750.228 86.8985C752.473 84.3326 755.676 82.3258 759.903 80.9167L759.271 79.0193C754.794 80.5116 751.256 82.686 748.723 85.5815L750.228 86.8985ZM759.92 80.911C764.151 79.4178 768.857 78.664 774.051 78.664V76.664C768.663 76.664 763.728 77.4462 759.254 79.025L759.92 80.911ZM773.051 77.664V94.944H775.051V77.664H773.051ZM774.051 93.944C768.324 93.944 763.211 94.7682 758.726 96.4389L759.424 98.3131C763.644 96.7412 768.514 95.944 774.051 95.944V93.944ZM758.72 96.4412C754.282 98.1277 751.109 100.704 749.349 104.225L751.138 105.119C752.62 102.155 755.335 99.867 759.43 98.3108L758.72 96.4412ZM749.243 104.672V140H751.243V104.672H749.243ZM750.243 139H727.715V141H750.243V139ZM728.715 140V78.56H726.715V140H728.715Z" fill="#3190FF" mask="url(#path-1-outside-1_72_6)"/>
<mask id="path-3-outside-2_72_6" maskUnits="userSpaceOnUse" x="2" y="48.3645" width="766" height="123" fill="black">
<rect fill="white" x="2" y="48.3645" width="766" height="123"/>
<path d="M51.968 146.285C42.24 146.285 33.664 144.407 26.24 140.653C18.9013 136.898 13.2267 131.522 9.216 124.525C5.20533 117.442 3.2 109.165 3.2 99.6925C3.2 90.2205 5.20533 81.9858 9.216 74.9885C13.2267 67.9058 18.9013 62.4872 26.24 58.7325C33.664 54.8925 42.24 52.9725 51.968 52.9725C58.368 52.9725 64.0853 53.6125 69.12 54.8925C74.1547 56.1725 78.8053 58.1778 83.072 60.9085V82.4125C79.3173 79.4258 75.0507 77.2498 70.272 75.8845C65.5787 74.5192 60.16 73.8365 54.016 73.8365C45.2267 73.8365 38.4427 76.1405 33.664 80.7485C28.8853 85.2712 26.496 91.5858 26.496 99.6925C26.496 107.799 28.8853 114.157 33.664 118.765C38.528 123.373 45.312 125.677 54.016 125.677C60.16 125.677 65.664 124.951 70.528 123.501C75.392 122.05 79.9147 119.746 84.096 116.589V137.965C75.9893 143.511 65.28 146.285 51.968 146.285ZM89.76 82.9245H111.52V90.6045C113.909 87.8738 117.28 85.7832 121.632 84.3325C125.984 82.7965 130.805 82.0285 136.096 82.0285V99.3085C130.464 99.3085 125.472 100.119 121.12 101.741C116.853 103.362 113.909 105.794 112.288 109.036V144.365H89.76V82.9245ZM159.928 146.285C152.248 146.285 146.019 144.45 141.24 140.781C136.547 137.026 134.2 131.821 134.2 125.165C134.2 118.253 136.461 112.962 140.984 109.292C145.592 105.538 152.163 103.66 160.696 103.66C164.024 103.66 167.352 104.044 170.68 104.812C174.008 105.495 176.867 106.434 179.256 107.629V106.348C179.256 99.7778 173.88 96.4925 163.128 96.4925C155.619 96.4925 148.749 97.9432 142.52 100.845V85.3565C145.251 84.0765 148.835 83.0525 153.272 82.2845C157.709 81.4312 162.317 81.0045 167.096 81.0045C178.531 81.0045 187.149 83.3085 192.952 87.9165C198.84 92.4392 201.784 98.7965 201.784 106.988V144.365H180.664V139.117C178.36 141.335 175.459 143.085 171.96 144.365C168.461 145.645 164.451 146.285 159.928 146.285ZM166.584 132.461C169.229 132.461 171.704 131.949 174.008 130.925C176.312 129.815 178.061 128.407 179.256 126.701V121.325C175.587 118.85 171.405 117.613 166.712 117.613C163.725 117.613 161.421 118.253 159.8 119.533C158.179 120.813 157.368 122.69 157.368 125.165C157.368 127.469 158.136 129.261 159.672 130.541C161.293 131.821 163.597 132.461 166.584 132.461ZM210.075 132.077L239.259 98.5405H210.843V82.9245H268.955V95.2125L240.027 128.749H269.979V144.365H210.075V132.077ZM293.329 169.709C290.598 169.709 287.74 169.495 284.753 169.069C281.766 168.727 279.548 168.215 278.097 167.533V150.765C280.572 151.789 283.388 152.301 286.545 152.301C289.361 152.301 291.537 151.661 293.073 150.381C294.694 149.186 295.974 147.266 296.913 144.621L298.449 140.525L271.825 82.9245H294.353L310.353 122.861L325.457 82.9245H347.985L322.641 147.181C319.654 154.861 315.814 160.535 311.121 164.205C306.513 167.874 300.582 169.709 293.329 169.709ZM444.093 146.285C434.365 146.285 425.789 144.407 418.365 140.653C411.026 136.898 405.352 131.522 401.341 124.525C397.33 117.442 395.325 109.165 395.325 99.6925C395.325 90.2205 397.33 81.9858 401.341 74.9885C405.352 67.9058 411.026 62.4872 418.365 58.7325C425.789 54.8925 434.365 52.9725 444.093 52.9725C450.493 52.9725 456.21 53.6125 461.245 54.8925C466.28 56.1725 470.93 58.1778 475.197 60.9085V82.4125C471.442 79.4258 467.176 77.2498 462.397 75.8845C457.704 74.5192 452.285 73.8365 446.141 73.8365C437.352 73.8365 430.568 76.1405 425.789 80.7485C421.01 85.2712 418.621 91.5858 418.621 99.6925C418.621 107.799 421.01 114.157 425.789 118.765C430.653 123.373 437.437 125.677 446.141 125.677C452.285 125.677 457.789 124.951 462.653 123.501C467.517 122.05 472.04 119.746 476.221 116.589V137.965C468.114 143.511 457.405 146.285 444.093 146.285ZM497.079 169.709C494.348 169.709 491.49 169.495 488.503 169.069C485.516 168.727 483.298 168.215 481.847 167.533V150.765C484.322 151.789 487.138 152.301 490.295 152.301C493.111 152.301 495.287 151.661 496.823 150.381C498.444 149.186 499.724 147.266 500.663 144.621L502.199 140.525L475.575 82.9245H498.103L514.103 122.861L529.207 82.9245H551.735L526.391 147.181C523.404 154.861 519.564 160.535 514.871 164.205C510.263 167.874 504.332 169.709 497.079 169.709ZM601.655 146.285C592.866 146.285 585.612 143.597 579.895 138.221V144.365H558.135V49.7725H580.663V87.9165C583.138 85.7832 586.21 84.1192 589.879 82.9245C593.634 81.6445 597.559 81.0045 601.655 81.0045C608.14 81.0045 613.815 82.3698 618.679 85.1005C623.628 87.8312 627.468 91.7138 630.199 96.7485C632.93 101.698 634.295 107.373 634.295 113.773C634.295 120.258 632.93 125.975 630.199 130.925C627.468 135.789 623.628 139.586 618.679 142.317C613.73 144.962 608.055 146.285 601.655 146.285ZM595.767 128.877C600.375 128.877 604.087 127.554 606.903 124.909C609.719 122.178 611.127 118.466 611.127 113.773C611.127 109.079 609.719 105.367 606.903 102.637C604.087 99.9058 600.375 98.5405 595.767 98.5405C592.354 98.5405 589.282 99.4365 586.551 101.229C583.82 102.935 581.858 105.282 580.663 108.269V119.149C581.858 122.135 583.82 124.525 586.551 126.317C589.282 128.023 592.354 128.877 595.767 128.877ZM679.356 146.285C667.324 146.285 657.852 143.469 650.94 137.837C644.113 132.205 640.7 124.226 640.7 113.901C640.7 103.746 643.729 95.7245 649.788 89.8365C655.932 83.9485 664.764 81.0045 676.284 81.0045C683.623 81.0045 689.895 82.4125 695.1 85.2285C700.391 87.9592 704.359 91.7565 707.004 96.6205C709.735 101.399 711.1 106.818 711.1 112.877V121.197H662.076C662.929 124.61 665.063 127.085 668.476 128.621C671.889 130.157 676.54 130.925 682.428 130.925C686.439 130.925 690.535 130.583 694.716 129.901C698.983 129.218 702.652 128.279 705.724 127.085V141.933C702.567 143.213 698.599 144.237 693.82 145.005C689.127 145.858 684.305 146.285 679.356 146.285ZM689.852 107.117C689.511 103.789 688.145 101.186 685.756 99.3085C683.367 97.4312 680.081 96.4925 675.9 96.4925C671.804 96.4925 668.561 97.4738 666.172 99.4365C663.783 101.314 662.417 103.874 662.076 107.117H689.852ZM720.01 82.9245H741.77V90.6045C744.159 87.8738 747.53 85.7832 751.882 84.3325C756.234 82.7965 761.055 82.0285 766.346 82.0285V99.3085C760.714 99.3085 755.722 100.119 751.37 101.741C747.103 103.362 744.159 105.794 742.538 109.036V144.365H720.01V82.9245Z"/>
</mask>
<path d="M26.24 140.653L25.7845 141.543L25.7887 141.545L26.24 140.653ZM9.216 124.525L8.34582 125.017L8.34841 125.022L9.216 124.525ZM9.216 74.9885L10.0836 75.4858L10.0862 75.4812L9.216 74.9885ZM26.24 58.7325L26.6955 59.6228L26.6994 59.6207L26.24 58.7325ZM69.12 54.8925L69.3664 53.9233L69.3664 53.9233L69.12 54.8925ZM83.072 60.9085H84.072V60.3612L83.6111 60.0662L83.072 60.9085ZM83.072 82.4125L82.4495 83.1951L84.072 84.4857V82.4125H83.072ZM70.272 75.8845L69.9927 76.8447L69.9973 76.846L70.272 75.8845ZM33.664 80.7485L34.3514 81.4748L34.3581 81.4683L33.664 80.7485ZM33.664 118.765L32.9698 119.484L32.9763 119.49L33.664 118.765ZM70.528 123.501L70.2422 122.542L70.2422 122.542L70.528 123.501ZM84.096 116.589H85.096V114.58L83.4934 115.79L84.096 116.589ZM84.096 137.965L84.6607 138.79L85.096 138.492V137.965H84.096ZM51.968 145.285C42.3703 145.285 33.9535 143.433 26.6913 139.76L25.7887 141.545C33.3745 145.381 42.1097 147.285 51.968 147.285V145.285ZM26.6955 139.762C19.5253 136.094 13.9956 130.853 10.0836 124.027L8.34841 125.022C12.4577 132.191 18.2773 137.702 25.7845 141.543L26.6955 139.762ZM10.0862 124.032C6.17364 117.122 4.2 109.02 4.2 99.6925H2.2C2.2 109.309 4.23703 117.761 8.34583 125.017L10.0862 124.032ZM4.2 99.6925C4.2 90.3643 6.17375 82.3072 10.0836 75.4858L8.34841 74.4912C4.23692 81.6645 2.2 90.0767 2.2 99.6925H4.2ZM10.0862 75.4812C13.9992 68.5711 19.5286 63.2895 26.6955 59.6227L25.7845 57.8423C18.2741 61.6848 12.4542 67.2406 8.34583 74.4957L10.0862 75.4812ZM26.6994 59.6207C33.9598 55.8653 42.3736 53.9725 51.968 53.9725V51.9725C42.1064 51.9725 33.3682 53.9197 25.7806 57.8443L26.6994 59.6207ZM51.968 53.9725C58.3033 53.9725 63.9355 54.6062 68.8736 55.8617L69.3664 53.9233C64.2351 52.6188 58.4327 51.9725 51.968 51.9725V53.9725ZM68.8736 55.8617C73.8072 57.116 78.3587 59.0793 82.533 61.7508L83.6111 60.0662C79.252 57.2764 74.5021 55.229 69.3664 53.9233L68.8736 55.8617ZM82.072 60.9085V82.4125H84.072V60.9085H82.072ZM83.6945 81.6299C79.8331 78.5583 75.4473 76.3231 70.5467 74.923L69.9973 76.846C74.654 78.1765 78.8015 80.2933 82.4495 83.1951L83.6945 81.6299ZM70.5513 74.9243C65.7475 73.5268 60.2314 72.8365 54.016 72.8365V74.8365C60.0886 74.8365 65.4099 75.5115 69.9927 76.8447L70.5513 74.9243ZM54.016 72.8365C45.0541 72.8365 37.989 75.1888 32.9699 80.0287L34.3581 81.4683C38.8963 77.0922 45.3992 74.8365 54.016 74.8365V72.8365ZM32.9766 80.0222C27.9537 84.776 25.496 91.3793 25.496 99.6925H27.496C27.496 91.7923 29.817 85.7663 34.3514 81.4748L32.9766 80.0222ZM25.496 99.6925C25.496 108.006 27.9539 114.647 32.9699 119.484L34.3581 118.045C29.8168 113.666 27.496 107.592 27.496 99.6925H25.496ZM32.9763 119.49C38.0764 124.322 45.1353 126.677 54.016 126.677V124.677C45.4887 124.677 38.9796 122.423 34.3517 118.039L32.9763 119.49ZM54.016 126.677C60.2372 126.677 65.84 125.942 70.8138 124.459L70.2422 122.542C65.488 123.96 60.0828 124.677 54.016 124.677V126.677ZM70.8138 124.459C75.7958 122.973 80.4252 120.613 84.6986 117.387L83.4934 115.79C79.4041 118.878 74.9882 121.127 70.2422 122.542L70.8138 124.459ZM83.096 116.589V137.965H85.096V116.589H83.096ZM83.5313 137.139C75.6406 142.538 65.1484 145.285 51.968 145.285V147.285C65.4116 147.285 76.3381 144.484 84.6607 138.79L83.5313 137.139ZM89.76 82.9245V81.9245H88.76V82.9245H89.76ZM111.52 82.9245H112.52V81.9245H111.52V82.9245ZM111.52 90.6045H110.52V93.2659L112.273 91.263L111.52 90.6045ZM121.632 84.3325L121.948 85.2812L121.957 85.2784L121.965 85.2755L121.632 84.3325ZM136.096 82.0285H137.096V81.0285H136.096V82.0285ZM136.096 99.3085V100.308H137.096V99.3085H136.096ZM121.12 101.741L120.771 100.803L120.765 100.806L121.12 101.741ZM112.288 109.036L111.394 108.589L111.288 108.8V109.036H112.288ZM112.288 144.365V145.365H113.288V144.365H112.288ZM89.76 144.365H88.76V145.365H89.76V144.365ZM89.76 83.9245H111.52V81.9245H89.76V83.9245ZM110.52 82.9245V90.6045H112.52V82.9245H110.52ZM112.273 91.263C114.518 88.6971 117.721 86.6903 121.948 85.2812L121.316 83.3838C116.839 84.8761 113.301 87.0505 110.767 89.946L112.273 91.263ZM121.965 85.2755C126.196 83.7823 130.902 83.0285 136.096 83.0285V81.0285C130.708 81.0285 125.772 81.8107 121.299 83.3895L121.965 85.2755ZM135.096 82.0285V99.3085H137.096V82.0285H135.096ZM136.096 98.3085C130.369 98.3085 125.256 99.1327 120.771 100.803L121.469 102.678C125.688 101.106 130.559 100.308 136.096 100.308V98.3085ZM120.765 100.806C116.327 102.492 113.154 105.068 111.394 108.589L113.182 109.484C114.665 106.519 117.38 104.232 121.475 102.675L120.765 100.806ZM111.288 109.036V144.365H113.288V109.036H111.288ZM112.288 143.365H89.76V145.365H112.288V143.365ZM90.76 144.365V82.9245H88.76V144.365H90.76ZM141.24 140.781L140.615 141.561L140.623 141.568L140.631 141.574L141.24 140.781ZM140.984 109.292L141.614 110.069L141.616 110.068L140.984 109.292ZM170.68 104.812L170.455 105.787L170.467 105.79L170.479 105.792L170.68 104.812ZM179.256 107.629L178.809 108.523L180.256 109.247V107.629H179.256ZM142.52 100.845H141.52V102.413L142.942 101.751L142.52 100.845ZM142.52 85.3565L142.096 84.451L141.52 84.7208V85.3565H142.52ZM153.272 82.2845L153.443 83.2699L153.452 83.2683L153.461 83.2665L153.272 82.2845ZM192.952 87.9165L192.33 88.6996L192.336 88.7046L192.343 88.7096L192.952 87.9165ZM201.784 144.365V145.365H202.784V144.365H201.784ZM180.664 144.365H179.664V145.365H180.664V144.365ZM180.664 139.117H181.664V136.765L179.97 138.396L180.664 139.117ZM174.008 130.925L174.414 131.838L174.428 131.832L174.442 131.826L174.008 130.925ZM179.256 126.701L180.075 127.274L180.256 127.016V126.701H179.256ZM179.256 121.325H180.256V120.793L179.815 120.495L179.256 121.325ZM159.8 119.533L159.18 118.748L159.18 118.748L159.8 119.533ZM159.672 130.541L159.032 131.309L159.042 131.317L159.052 131.325L159.672 130.541ZM159.928 145.285C152.407 145.285 146.41 143.49 141.849 139.987L140.631 141.574C145.627 145.41 152.089 147.285 159.928 147.285V145.285ZM141.865 140C137.436 136.457 135.2 131.554 135.2 125.165H133.2C133.2 132.087 135.657 137.595 140.615 141.561L141.865 140ZM135.2 125.165C135.2 118.491 137.37 113.512 141.614 110.069L140.354 108.516C135.553 112.411 133.2 118.014 133.2 125.165H135.2ZM141.616 110.068C145.982 106.51 152.295 104.66 160.696 104.66V102.66C152.03 102.66 145.202 104.566 140.352 108.517L141.616 110.068ZM160.696 104.66C163.946 104.66 167.199 105.035 170.455 105.787L170.905 103.838C167.505 103.054 164.102 102.66 160.696 102.66V104.66ZM170.479 105.792C173.744 106.462 176.515 107.376 178.809 108.523L179.703 106.734C177.218 105.492 174.272 104.529 170.881 103.833L170.479 105.792ZM180.256 107.629V106.348H178.256V107.629H180.256ZM180.256 106.348C180.256 102.733 178.746 99.9368 175.745 98.1032C172.825 96.3186 168.573 95.4925 163.128 95.4925V97.4925C168.435 97.4925 172.247 98.3091 174.703 99.8098C177.078 101.262 178.256 103.393 178.256 106.348H180.256ZM163.128 95.4925C155.486 95.4925 148.471 96.9695 142.098 99.938L142.942 101.751C149.027 98.9168 155.751 97.4925 163.128 97.4925V95.4925ZM143.52 100.845V85.3565H141.52V100.845H143.52ZM142.944 86.262C145.565 85.0334 149.054 84.0293 153.443 83.2699L153.101 81.2991C148.615 82.0757 144.936 83.1196 142.096 84.451L142.944 86.262ZM153.461 83.2665C157.832 82.4258 162.377 82.0045 167.096 82.0045V80.0045C162.258 80.0045 157.586 80.4365 153.083 81.3025L153.461 83.2665ZM167.096 82.0045C178.421 82.0045 186.778 84.2903 192.33 88.6996L193.574 87.1334C187.521 82.3267 178.64 80.0045 167.096 80.0045V82.0045ZM192.343 88.7096C197.957 93.0216 200.784 99.0703 200.784 106.988H202.784C202.784 98.5227 199.723 91.8568 193.561 87.1234L192.343 88.7096ZM200.784 106.988V144.365H202.784V106.988H200.784ZM201.784 143.365H180.664V145.365H201.784V143.365ZM181.664 144.365V139.117H179.664V144.365H181.664ZM179.97 138.396C177.782 140.504 175.006 142.185 171.616 143.425L172.304 145.304C175.912 143.984 178.938 142.167 181.358 139.837L179.97 138.396ZM171.616 143.425C168.249 144.658 164.358 145.285 159.928 145.285V147.285C164.544 147.285 168.674 146.631 172.304 145.304L171.616 143.425ZM166.584 133.461C169.362 133.461 171.976 132.922 174.414 131.838L173.602 130.011C171.432 130.975 169.096 131.461 166.584 131.461V133.461ZM174.442 131.826C176.865 130.659 178.762 129.15 180.075 127.274L178.437 126.127C177.36 127.665 175.759 128.972 173.574 130.023L174.442 131.826ZM180.256 126.701V121.325H178.256V126.701H180.256ZM179.815 120.495C175.97 117.902 171.592 116.613 166.712 116.613V118.613C171.219 118.613 175.203 119.797 178.697 122.154L179.815 120.495ZM166.712 116.613C163.598 116.613 161.042 117.278 159.18 118.748L160.42 120.317C161.801 119.227 163.853 118.613 166.712 118.613V116.613ZM159.18 118.748C157.27 120.255 156.368 122.451 156.368 125.165H158.368C158.368 122.928 159.087 121.37 160.42 120.317L159.18 118.748ZM156.368 125.165C156.368 127.715 157.232 129.809 159.032 131.309L160.312 129.772C159.04 128.712 158.368 127.222 158.368 125.165H156.368ZM159.052 131.325C160.914 132.795 163.47 133.461 166.584 133.461V131.461C163.725 131.461 161.673 130.846 160.292 129.756L159.052 131.325ZM210.075 132.077L209.321 131.42L209.075 131.702V132.077H210.075ZM239.259 98.5405L240.013 99.197L241.455 97.5405H239.259V98.5405ZM210.843 98.5405H209.843V99.5405H210.843V98.5405ZM210.843 82.9245V81.9245H209.843V82.9245H210.843ZM268.955 82.9245H269.955V81.9245H268.955V82.9245ZM268.955 95.2125L269.712 95.8657L269.955 95.5842V95.2125H268.955ZM240.027 128.749L239.27 128.095L237.844 129.749H240.027V128.749ZM269.979 128.749H270.979V127.749H269.979V128.749ZM269.979 144.365V145.365H270.979V144.365H269.979ZM210.075 144.365H209.075V145.365H210.075V144.365ZM210.829 132.733L240.013 99.197L238.505 97.884L209.321 131.42L210.829 132.733ZM239.259 97.5405H210.843V99.5405H239.259V97.5405ZM211.843 98.5405V82.9245H209.843V98.5405H211.843ZM210.843 83.9245H268.955V81.9245H210.843V83.9245ZM267.955 82.9245V95.2125H269.955V82.9245H267.955ZM268.198 94.5593L239.27 128.095L240.784 129.402L269.712 95.8657L268.198 94.5593ZM240.027 129.749H269.979V127.749H240.027V129.749ZM268.979 128.749V144.365H270.979V128.749H268.979ZM269.979 143.365H210.075V145.365H269.979V143.365ZM211.075 144.365V132.077H209.075V144.365H211.075ZM284.753 169.069L284.894 168.079L284.881 168.077L284.867 168.075L284.753 169.069ZM278.097 167.533H277.097V168.167L277.671 168.437L278.097 167.533ZM278.097 150.765L278.479 149.84L277.097 149.268V150.765H278.097ZM293.073 150.381L292.48 149.575L292.456 149.593L292.433 149.612L293.073 150.381ZM296.913 144.621L295.977 144.269L295.974 144.278L295.971 144.286L296.913 144.621ZM298.449 140.525L299.385 140.876L299.532 140.484L299.357 140.105L298.449 140.525ZM271.825 82.9245V81.9245H270.261L270.917 83.3441L271.825 82.9245ZM294.353 82.9245L295.281 82.5526L295.03 81.9245H294.353V82.9245ZM310.353 122.861L309.425 123.232L310.38 125.616L311.288 123.214L310.353 122.861ZM325.457 82.9245V81.9245H324.766L324.522 82.5707L325.457 82.9245ZM347.985 82.9245L348.915 83.2914L349.454 81.9245H347.985V82.9245ZM322.641 147.181L321.711 146.814L321.709 146.818L322.641 147.181ZM311.121 164.205L310.505 163.417L310.498 163.422L311.121 164.205ZM293.329 168.709C290.65 168.709 287.839 168.499 284.894 168.079L284.612 170.058C287.64 170.491 290.546 170.709 293.329 170.709V168.709ZM284.867 168.075C281.911 167.737 279.823 167.24 278.523 166.628L277.671 168.437C279.272 169.191 281.622 169.717 284.639 170.062L284.867 168.075ZM279.097 167.533V150.765H277.097V167.533H279.097ZM277.715 151.689C280.33 152.771 283.28 153.301 286.545 153.301V151.301C283.496 151.301 280.813 150.806 278.479 149.84L277.715 151.689ZM286.545 153.301C289.501 153.301 291.936 152.629 293.713 151.149L292.433 149.612C291.138 150.692 289.221 151.301 286.545 151.301V153.301ZM293.666 151.186C295.5 149.834 296.875 147.717 297.855 144.955L295.971 144.286C295.073 146.815 293.888 148.537 292.48 149.575L293.666 151.186ZM297.849 144.972L299.385 140.876L297.513 140.173L295.977 144.269L297.849 144.972ZM299.357 140.105L272.733 82.5049L270.917 83.3441L297.541 140.944L299.357 140.105ZM271.825 83.9245H294.353V81.9245H271.825V83.9245ZM293.425 83.2964L309.425 123.232L311.281 122.489L295.281 82.5526L293.425 83.2964ZM311.288 123.214L326.392 83.2782L324.522 82.5707L309.418 122.507L311.288 123.214ZM325.457 83.9245H347.985V81.9245H325.457V83.9245ZM347.055 82.5576L321.711 146.814L323.571 147.547L348.915 83.2914L347.055 82.5576ZM321.709 146.818C318.764 154.392 315.012 159.893 310.505 163.417L311.737 164.992C316.616 161.178 320.545 155.329 323.573 147.543L321.709 146.818ZM310.498 163.422C306.105 166.92 300.41 168.709 293.329 168.709V170.709C300.755 170.709 306.921 168.827 311.744 164.987L310.498 163.422ZM418.365 140.653L417.91 141.543L417.914 141.545L418.365 140.653ZM401.341 124.525L400.471 125.017L400.473 125.022L401.341 124.525ZM401.341 74.9885L402.209 75.4858L402.211 75.4812L401.341 74.9885ZM418.365 58.7325L418.82 59.6228L418.824 59.6207L418.365 58.7325ZM461.245 54.8925L461.491 53.9233L461.491 53.9233L461.245 54.8925ZM475.197 60.9085H476.197V60.3612L475.736 60.0662L475.197 60.9085ZM475.197 82.4125L474.574 83.1951L476.197 84.4857V82.4125H475.197ZM462.397 75.8845L462.118 76.8447L462.122 76.846L462.397 75.8845ZM425.789 80.7485L426.476 81.4748L426.483 81.4683L425.789 80.7485ZM425.789 118.765L425.095 119.484L425.101 119.49L425.789 118.765ZM462.653 123.501L462.367 122.542L462.367 122.542L462.653 123.501ZM476.221 116.589H477.221V114.58L475.618 115.79L476.221 116.589ZM476.221 137.965L476.786 138.79L477.221 138.492V137.965H476.221ZM444.093 145.285C434.495 145.285 426.079 143.433 418.816 139.76L417.914 141.545C425.499 145.381 434.235 147.285 444.093 147.285V145.285ZM418.82 139.762C411.65 136.094 406.121 130.853 402.209 124.027L400.473 125.022C404.583 132.191 410.402 137.702 417.91 141.543L418.82 139.762ZM402.211 124.032C398.299 117.122 396.325 109.02 396.325 99.6925H394.325C394.325 109.309 396.362 117.761 400.471 125.017L402.211 124.032ZM396.325 99.6925C396.325 90.3643 398.299 82.3072 402.209 75.4858L400.473 74.4912C396.362 81.6645 394.325 90.0767 394.325 99.6925H396.325ZM402.211 75.4812C406.124 68.5711 411.654 63.2895 418.82 59.6227L417.91 57.8423C410.399 61.6848 404.579 67.2406 400.471 74.4957L402.211 75.4812ZM418.824 59.6207C426.085 55.8653 434.499 53.9725 444.093 53.9725V51.9725C434.231 51.9725 425.493 53.9197 417.906 57.8443L418.824 59.6207ZM444.093 53.9725C450.428 53.9725 456.061 54.6062 460.999 55.8617L461.491 53.9233C456.36 52.6188 450.558 51.9725 444.093 51.9725V53.9725ZM460.999 55.8617C465.932 57.116 470.484 59.0793 474.658 61.7508L475.736 60.0662C471.377 57.2764 466.627 55.229 461.491 53.9233L460.999 55.8617ZM474.197 60.9085V82.4125H476.197V60.9085H474.197ZM475.82 81.6299C471.958 78.5583 467.572 76.3231 462.672 74.923L462.122 76.846C466.779 78.1765 470.927 80.2933 474.574 83.1951L475.82 81.6299ZM462.676 74.9243C457.872 73.5268 452.356 72.8365 446.141 72.8365V74.8365C452.214 74.8365 457.535 75.5115 462.118 76.8447L462.676 74.9243ZM446.141 72.8365C437.179 72.8365 430.114 75.1888 425.095 80.0287L426.483 81.4683C431.021 77.0922 437.524 74.8365 446.141 74.8365V72.8365ZM425.102 80.0222C420.079 84.776 417.621 91.3793 417.621 99.6925H419.621C419.621 91.7923 421.942 85.7663 426.476 81.4748L425.102 80.0222ZM417.621 99.6925C417.621 108.006 420.079 114.647 425.095 119.484L426.483 118.045C421.942 113.666 419.621 107.592 419.621 99.6925H417.621ZM425.101 119.49C430.201 124.322 437.26 126.677 446.141 126.677V124.677C437.614 124.677 431.105 122.423 426.477 118.039L425.101 119.49ZM446.141 126.677C452.362 126.677 457.965 125.942 462.939 124.459L462.367 122.542C457.613 123.96 452.208 124.677 446.141 124.677V126.677ZM462.939 124.459C467.921 122.973 472.55 120.613 476.824 117.387L475.618 115.79C471.529 118.878 467.113 121.127 462.367 122.542L462.939 124.459ZM475.221 116.589V137.965H477.221V116.589H475.221ZM475.656 137.139C467.766 142.538 457.273 145.285 444.093 145.285V147.285C457.537 147.285 468.463 144.484 476.786 138.79L475.656 137.139ZM488.503 169.069L488.644 168.079L488.631 168.077L488.617 168.075L488.503 169.069ZM481.847 167.533H480.847V168.167L481.421 168.437L481.847 167.533ZM481.847 150.765L482.229 149.84L480.847 149.268V150.765H481.847ZM496.823 150.381L496.23 149.575L496.206 149.593L496.183 149.612L496.823 150.381ZM500.663 144.621L499.727 144.269L499.724 144.278L499.721 144.286L500.663 144.621ZM502.199 140.525L503.135 140.876L503.282 140.484L503.107 140.105L502.199 140.525ZM475.575 82.9245V81.9245H474.011L474.667 83.3441L475.575 82.9245ZM498.103 82.9245L499.031 82.5526L498.78 81.9245H498.103V82.9245ZM514.103 122.861L513.175 123.232L514.13 125.616L515.038 123.214L514.103 122.861ZM529.207 82.9245V81.9245H528.516L528.272 82.5707L529.207 82.9245ZM551.735 82.9245L552.665 83.2914L553.204 81.9245H551.735V82.9245ZM526.391 147.181L525.461 146.814L525.459 146.818L526.391 147.181ZM514.871 164.205L514.255 163.417L514.248 163.422L514.871 164.205ZM497.079 168.709C494.4 168.709 491.589 168.499 488.644 168.079L488.362 170.058C491.39 170.491 494.296 170.709 497.079 170.709V168.709ZM488.617 168.075C485.661 167.737 483.573 167.24 482.273 166.628L481.421 168.437C483.022 169.191 485.372 169.717 488.389 170.062L488.617 168.075ZM482.847 167.533V150.765H480.847V167.533H482.847ZM481.465 151.689C484.08 152.771 487.03 153.301 490.295 153.301V151.301C487.246 151.301 484.563 150.806 482.229 149.84L481.465 151.689ZM490.295 153.301C493.251 153.301 495.686 152.629 497.463 151.149L496.183 149.612C494.888 150.692 492.971 151.301 490.295 151.301V153.301ZM497.416 151.186C499.25 149.834 500.625 147.717 501.605 144.955L499.721 144.286C498.823 146.815 497.638 148.537 496.23 149.575L497.416 151.186ZM501.599 144.972L503.135 140.876L501.263 140.173L499.727 144.269L501.599 144.972ZM503.107 140.105L476.483 82.5049L474.667 83.3441L501.291 140.944L503.107 140.105ZM475.575 83.9245H498.103V81.9245H475.575V83.9245ZM497.175 83.2964L513.175 123.232L515.031 122.489L499.031 82.5526L497.175 83.2964ZM515.038 123.214L530.142 83.2782L528.272 82.5707L513.168 122.507L515.038 123.214ZM529.207 83.9245H551.735V81.9245H529.207V83.9245ZM550.805 82.5576L525.461 146.814L527.321 147.547L552.665 83.2914L550.805 82.5576ZM525.459 146.818C522.514 154.392 518.762 159.893 514.255 163.417L515.487 164.992C520.366 161.178 524.295 155.329 527.323 147.543L525.459 146.818ZM514.248 163.422C509.855 166.92 504.16 168.709 497.079 168.709V170.709C504.505 170.709 510.671 168.827 515.494 164.987L514.248 163.422ZM579.895 138.221L580.58 137.492L578.895 135.908V138.221H579.895ZM579.895 144.365V145.365H580.895V144.365H579.895ZM558.135 144.365H557.135V145.365H558.135V144.365ZM558.135 49.7725V48.7725H557.135V49.7725H558.135ZM580.663 49.7725H581.663V48.7725H580.663V49.7725ZM580.663 87.9165H579.663V90.0989L581.316 88.6739L580.663 87.9165ZM589.879 82.9245L590.189 83.8755L590.202 83.871L589.879 82.9245ZM618.679 85.1005L618.189 85.9725L618.196 85.9761L618.679 85.1005ZM630.199 96.7485L629.32 97.2253L629.323 97.2316L630.199 96.7485ZM630.199 130.925L631.071 131.414L631.075 131.408L630.199 130.925ZM618.679 142.317L619.15 143.199L619.162 143.192L618.679 142.317ZM606.903 124.909L607.588 125.637L607.593 125.632L607.599 125.626L606.903 124.909ZM606.903 102.637L607.599 101.919L607.599 101.919L606.903 102.637ZM586.551 101.229L587.081 102.076L587.09 102.071L587.1 102.065L586.551 101.229ZM580.663 108.269L579.735 107.897L579.663 108.076V108.269H580.663ZM580.663 119.149H579.663V119.341L579.735 119.52L580.663 119.149ZM586.551 126.317L586.002 127.153L586.012 127.159L586.021 127.165L586.551 126.317ZM601.655 145.285C593.087 145.285 586.089 142.672 580.58 137.492L579.21 138.949C585.136 144.521 592.644 147.285 601.655 147.285V145.285ZM578.895 138.221V144.365H580.895V138.221H578.895ZM579.895 143.365H558.135V145.365H579.895V143.365ZM559.135 144.365V49.7725H557.135V144.365H559.135ZM558.135 50.7725H580.663V48.7725H558.135V50.7725ZM579.663 49.7725V87.9165H581.663V49.7725H579.663ZM581.316 88.6739C583.674 86.6414 586.623 85.0363 590.189 83.8754L589.569 81.9736C585.796 83.2021 582.602 84.9249 580.01 87.1591L581.316 88.6739ZM590.202 83.871C593.849 82.6276 597.665 82.0045 601.655 82.0045V80.0045C597.453 80.0045 593.418 80.6614 589.556 81.978L590.202 83.871ZM601.655 82.0045C607.997 82.0045 613.498 83.3385 618.189 85.9725L619.169 84.2285C614.132 81.4011 608.284 80.0045 601.655 80.0045V82.0045ZM618.196 85.9761C622.976 88.6131 626.679 92.3563 629.32 97.2253L631.078 96.2717C628.258 91.0714 624.281 87.0492 619.162 84.2249L618.196 85.9761ZM629.323 97.2316C631.962 102.014 633.295 107.519 633.295 113.773H635.295C635.295 107.226 633.897 101.381 631.075 96.2654L629.323 97.2316ZM633.295 113.773C633.295 120.114 631.961 125.661 629.323 130.441L631.075 131.408C633.898 126.29 635.295 120.402 635.295 113.773H633.295ZM629.327 130.435C626.689 135.134 622.985 138.799 618.196 141.441L619.162 143.192C624.272 140.373 628.248 136.443 631.071 131.414L629.327 130.435ZM618.208 141.435C613.423 143.992 607.914 145.285 601.655 145.285V147.285C608.196 147.285 614.037 145.932 619.15 143.198L618.208 141.435ZM595.767 129.877C600.577 129.877 604.551 128.49 607.588 125.637L606.218 124.18C603.623 126.618 600.173 127.877 595.767 127.877V129.877ZM607.599 125.626C610.647 122.671 612.127 118.679 612.127 113.773H610.127C610.127 118.253 608.791 121.685 606.207 124.191L607.599 125.626ZM612.127 113.773C612.127 108.866 610.647 104.874 607.599 101.919L606.207 103.354C608.791 105.86 610.127 109.292 610.127 113.773H612.127ZM607.599 101.919C604.564 98.9757 600.586 97.5405 595.767 97.5405V99.5405C600.164 99.5405 603.61 100.836 606.207 103.354L607.599 101.919ZM595.767 97.5405C592.168 97.5405 588.904 98.4885 586.002 100.392L587.1 102.065C589.66 100.384 592.539 99.5405 595.767 99.5405V97.5405ZM586.021 100.381C583.11 102.2 581.008 104.713 579.735 107.897L581.591 108.64C582.707 105.851 584.53 103.671 587.081 102.076L586.021 100.381ZM579.663 108.269V119.149H581.663V108.269H579.663ZM579.735 119.52C581.006 122.7 583.103 125.25 586.002 127.153L587.1 125.48C584.537 123.799 582.709 121.571 581.591 118.777L579.735 119.52ZM586.021 127.165C588.92 128.977 592.178 129.877 595.767 129.877V127.877C592.529 127.877 589.643 127.07 587.081 125.469L586.021 127.165ZM650.94 137.837L650.304 138.608L650.308 138.612L650.94 137.837ZM649.788 89.8365L649.096 89.1145L649.091 89.1194L649.788 89.8365ZM695.1 85.2285L694.624 86.108L694.633 86.1127L694.641 86.1171L695.1 85.2285ZM707.004 96.6205L706.126 97.0983L706.131 97.1075L706.136 97.1166L707.004 96.6205ZM711.1 121.197V122.197H712.1V121.197H711.1ZM662.076 121.197V120.197H660.795L661.106 121.439L662.076 121.197ZM668.476 128.621L668.886 127.709L668.886 127.709L668.476 128.621ZM694.716 129.901L694.558 128.913L694.555 128.914L694.716 129.901ZM705.724 127.085H706.724V125.623L705.362 126.152L705.724 127.085ZM705.724 141.933L706.1 142.859L706.724 142.606V141.933H705.724ZM693.82 145.005L693.661 144.017L693.651 144.019L693.641 144.021L693.82 145.005ZM689.852 107.117V108.117H690.96L690.847 107.014L689.852 107.117ZM685.756 99.3085L686.374 98.5222L686.374 98.5222L685.756 99.3085ZM666.172 99.4365L666.79 100.223L666.798 100.216L666.807 100.209L666.172 99.4365ZM662.076 107.117L661.081 107.012L660.965 108.117H662.076V107.117ZM679.356 145.285C667.474 145.285 658.252 142.504 651.572 137.061L650.308 138.612C657.452 144.433 667.174 147.285 679.356 147.285V145.285ZM651.576 137.065C645.02 131.656 641.7 123.983 641.7 113.901H639.7C639.7 124.469 643.207 132.753 650.304 138.608L651.576 137.065ZM641.7 113.901C641.7 103.957 644.658 96.2161 650.485 90.5536L649.091 89.1194C642.8 95.2329 639.7 103.534 639.7 113.901H641.7ZM650.48 90.5585C656.38 84.9043 664.929 82.0045 676.284 82.0045V80.0045C664.599 80.0045 655.484 82.9927 649.096 89.1145L650.48 90.5585ZM676.284 82.0045C683.496 82.0045 689.596 83.3879 694.624 86.108L695.576 84.349C690.193 81.4371 683.75 80.0045 676.284 80.0045V82.0045ZM694.641 86.1171C699.768 88.7632 703.583 92.4236 706.126 97.0983L707.882 96.1427C705.134 91.0894 701.013 87.1551 695.559 84.3399L694.641 86.1171ZM706.136 97.1166C708.772 101.729 710.1 106.974 710.1 112.877H712.1C712.1 106.662 710.698 101.069 707.872 96.1244L706.136 97.1166ZM710.1 112.877V121.197H712.1V112.877H710.1ZM711.1 120.197H662.076V122.197H711.1V120.197ZM661.106 121.439C662.039 125.171 664.394 127.88 668.066 129.532L668.886 127.709C665.732 126.289 663.82 124.049 663.046 120.954L661.106 121.439ZM668.066 129.532C671.661 131.15 676.471 131.925 682.428 131.925V129.925C676.609 129.925 672.118 129.163 668.886 127.709L668.066 129.532ZM682.428 131.925C686.496 131.925 690.646 131.578 694.877 130.887L694.555 128.914C690.424 129.588 686.382 129.925 682.428 129.925V131.925ZM694.874 130.888C699.19 130.197 702.932 129.243 706.086 128.017L705.362 126.152C702.372 127.315 698.775 128.238 694.558 128.913L694.874 130.888ZM704.724 127.085V141.933H706.724V127.085H704.724ZM705.348 141.006C702.283 142.248 698.394 143.257 693.661 144.017L693.979 145.992C698.803 145.216 702.85 144.177 706.1 142.859L705.348 141.006ZM693.641 144.021C689.009 144.863 684.248 145.285 679.356 145.285V147.285C684.363 147.285 689.244 146.853 693.999 145.988L693.641 144.021ZM690.847 107.014C690.481 103.447 688.999 100.585 686.374 98.5222L685.138 100.095C687.292 101.787 688.54 104.13 688.857 107.219L690.847 107.014ZM686.374 98.5222C683.752 96.4625 680.222 95.4925 675.9 95.4925V97.4925C679.94 97.4925 682.981 98.3998 685.138 100.095L686.374 98.5222ZM675.9 95.4925C671.648 95.4925 668.156 96.5124 665.537 98.6638L666.807 100.209C668.966 98.4353 671.96 97.4925 675.9 97.4925V95.4925ZM665.554 98.6502C662.936 100.708 661.449 103.522 661.081 107.012L663.071 107.221C663.386 104.225 664.63 101.92 666.79 100.223L665.554 98.6502ZM662.076 108.117H689.852V106.117H662.076V108.117ZM720.01 82.9245V81.9245H719.01V82.9245H720.01ZM741.77 82.9245H742.77V81.9245H741.77V82.9245ZM741.77 90.6045H740.77V93.2659L742.523 91.263L741.77 90.6045ZM751.882 84.3325L752.198 85.2812L752.207 85.2784L752.215 85.2755L751.882 84.3325ZM766.346 82.0285H767.346V81.0285H766.346V82.0285ZM766.346 99.3085V100.308H767.346V99.3085H766.346ZM751.37 101.741L751.021 100.803L751.015 100.806L751.37 101.741ZM742.538 109.036L741.644 108.589L741.538 108.8V109.036H742.538ZM742.538 144.365V145.365H743.538V144.365H742.538ZM720.01 144.365H719.01V145.365H720.01V144.365ZM720.01 83.9245H741.77V81.9245H720.01V83.9245ZM740.77 82.9245V90.6045H742.77V82.9245H740.77ZM742.523 91.263C744.768 88.6971 747.971 86.6903 752.198 85.2812L751.566 83.3838C747.089 84.8761 743.551 87.0505 741.017 89.946L742.523 91.263ZM752.215 85.2755C756.446 83.7823 761.152 83.0285 766.346 83.0285V81.0285C760.958 81.0285 756.022 81.8107 751.549 83.3895L752.215 85.2755ZM765.346 82.0285V99.3085H767.346V82.0285H765.346ZM766.346 98.3085C760.619 98.3085 755.506 99.1327 751.021 100.803L751.719 102.678C755.938 101.106 760.809 100.308 766.346 100.308V98.3085ZM751.015 100.806C746.577 102.492 743.404 105.068 741.644 108.589L743.432 109.484C744.915 106.519 747.63 104.232 751.725 102.675L751.015 100.806ZM741.538 109.036V144.365H743.538V109.036H741.538ZM742.538 143.365H720.01V145.365H742.538V143.365ZM721.01 144.365V82.9245H719.01V144.365H721.01Z" fill="#CE504B" mask="url(#path-3-outside-2_72_6)"/>
<path d="M55.8205 144.102C46.0925 144.102 37.5165 142.225 30.0925 138.47C22.7539 134.716 17.0792 129.34 13.0685 122.342C9.05787 115.26 7.05254 106.982 7.05254 97.5103C7.05254 88.0382 9.05787 79.8036 13.0685 72.8062C17.0792 65.7236 22.7539 60.3049 30.0925 56.5502C37.5165 52.7102 46.0925 50.7902 55.8205 50.7902C62.2205 50.7902 67.9379 51.4302 72.9725 52.7102C78.0072 53.9902 82.6579 55.9956 86.9245 58.7262V80.2302C83.1699 77.2436 78.9032 75.0676 74.1245 73.7022C69.4312 72.3369 64.0125 71.6543 57.8685 71.6543C49.0792 71.6543 42.2952 73.9583 37.5165 78.5662C32.7379 83.0889 30.3485 89.4036 30.3485 97.5103C30.3485 105.617 32.7379 111.974 37.5165 116.582C42.3805 121.19 49.1645 123.494 57.8685 123.494C64.0125 123.494 69.5165 122.769 74.3805 121.318C79.2445 119.868 83.7672 117.564 87.9485 114.406V135.782C79.8419 141.329 69.1325 144.102 55.8205 144.102ZM93.6125 80.7422H115.373V88.4222C117.762 85.6916 121.133 83.6009 125.485 82.1502C129.837 80.6142 134.658 79.8462 139.949 79.8462V97.1262C134.317 97.1262 129.325 97.9369 124.973 99.5583C120.706 101.18 117.762 103.612 116.141 106.854V142.182H93.6125V80.7422ZM163.781 144.102C156.101 144.102 149.871 142.268 145.093 138.598C140.399 134.844 138.053 129.638 138.053 122.982C138.053 116.07 140.314 110.78 144.837 107.11C149.445 103.356 156.015 101.478 164.549 101.478C167.877 101.478 171.205 101.862 174.533 102.63C177.861 103.313 180.719 104.252 183.109 105.446V104.166C183.109 97.5956 177.733 94.3102 166.981 94.3102C159.471 94.3102 152.602 95.7609 146.373 98.6623V83.1742C149.103 81.8942 152.687 80.8702 157.125 80.1022C161.562 79.2489 166.17 78.8222 170.949 78.8222C182.383 78.8222 191.002 81.1262 196.805 85.7342C202.693 90.2569 205.637 96.6142 205.637 104.806V142.182H184.517V136.934C182.213 139.153 179.311 140.902 175.813 142.182C172.314 143.462 168.303 144.102 163.781 144.102ZM170.437 130.278C173.082 130.278 175.557 129.766 177.861 128.742C180.165 127.633 181.914 126.225 183.109 124.518V119.142C179.439 116.668 175.258 115.43 170.565 115.43C167.578 115.43 165.274 116.07 163.653 117.35C162.031 118.63 161.221 120.508 161.221 122.982C161.221 125.286 161.989 127.078 163.525 128.358C165.146 129.638 167.45 130.278 170.437 130.278ZM213.928 129.894L243.112 96.3582H214.696V80.7422H272.808V93.0303L243.88 126.566H273.832V142.182H213.928V129.894ZM297.182 167.526C294.451 167.526 291.592 167.313 288.606 166.886C285.619 166.545 283.4 166.033 281.95 165.35V148.582C284.424 149.606 287.24 150.118 290.398 150.118C293.214 150.118 295.39 149.478 296.926 148.198C298.547 147.004 299.827 145.084 300.766 142.438L302.302 138.342L275.678 80.7422H298.206L314.206 120.678L329.31 80.7422H351.838L326.494 144.998C323.507 152.678 319.667 158.353 314.974 162.022C310.366 165.692 304.435 167.526 297.182 167.526ZM447.946 144.102C438.218 144.102 429.642 142.225 422.218 138.47C414.879 134.716 409.204 129.34 405.194 122.342C401.183 115.26 399.178 106.982 399.178 97.5103C399.178 88.0382 401.183 79.8036 405.194 72.8062C409.204 65.7236 414.879 60.3049 422.218 56.5502C429.642 52.7102 438.218 50.7902 447.946 50.7902C454.346 50.7902 460.063 51.4302 465.098 52.7102C470.132 53.9902 474.783 55.9956 479.05 58.7262V80.2302C475.295 77.2436 471.028 75.0676 466.25 73.7022C461.556 72.3369 456.138 71.6543 449.994 71.6543C441.204 71.6543 434.42 73.9583 429.642 78.5662C424.863 83.0889 422.474 89.4036 422.474 97.5103C422.474 105.617 424.863 111.974 429.642 116.582C434.506 121.19 441.29 123.494 449.994 123.494C456.138 123.494 461.642 122.769 466.506 121.318C471.37 119.868 475.892 117.564 480.074 114.406V135.782C471.967 141.329 461.258 144.102 447.946 144.102ZM500.932 167.526C498.201 167.526 495.342 167.313 492.356 166.886C489.369 166.545 487.15 166.033 485.7 165.35V148.582C488.174 149.606 490.99 150.118 494.148 150.118C496.964 150.118 499.14 149.478 500.676 148.198C502.297 147.004 503.577 145.084 504.516 142.438L506.052 138.342L479.428 80.7422H501.956L517.956 120.678L533.06 80.7422H555.588L530.244 144.998C527.257 152.678 523.417 158.353 518.724 162.022C514.116 165.692 508.185 167.526 500.932 167.526ZM605.508 144.102C596.718 144.102 589.465 141.414 583.748 136.038V142.182H561.988V47.5902H584.516V85.7342C586.99 83.6009 590.062 81.9369 593.732 80.7422C597.486 79.4622 601.412 78.8222 605.508 78.8222C611.993 78.8222 617.668 80.1876 622.532 82.9182C627.481 85.6489 631.321 89.5316 634.052 94.5662C636.782 99.5156 638.148 105.19 638.148 111.59C638.148 118.076 636.782 123.793 634.052 128.742C631.321 133.606 627.481 137.404 622.532 140.134C617.582 142.78 611.908 144.102 605.508 144.102ZM599.62 126.694C604.228 126.694 607.94 125.372 610.756 122.726C613.572 119.996 614.98 116.284 614.98 111.59C614.98 106.897 613.572 103.185 610.756 100.454C607.94 97.7236 604.228 96.3582 599.62 96.3582C596.206 96.3582 593.134 97.2542 590.404 99.0462C587.673 100.753 585.71 103.1 584.516 106.086V116.966C585.71 119.953 587.673 122.342 590.404 124.134C593.134 125.841 596.206 126.694 599.62 126.694ZM683.209 144.102C671.177 144.102 661.705 141.286 654.793 135.654C647.966 130.022 644.553 122.044 644.553 111.718C644.553 101.564 647.582 93.5422 653.641 87.6542C659.785 81.7662 668.617 78.8222 680.137 78.8222C687.475 78.8222 693.747 80.2302 698.953 83.0462C704.243 85.7769 708.211 89.5742 710.857 94.4382C713.587 99.2169 714.953 104.636 714.953 110.694V119.014H665.929C666.782 122.428 668.915 124.902 672.329 126.438C675.742 127.974 680.393 128.742 686.281 128.742C690.291 128.742 694.387 128.401 698.569 127.718C702.835 127.036 706.505 126.097 709.577 124.902V139.75C706.419 141.03 702.451 142.054 697.673 142.822C692.979 143.676 688.158 144.102 683.209 144.102ZM693.705 104.934C693.363 101.606 691.998 99.0036 689.609 97.1262C687.219 95.2489 683.934 94.3102 679.753 94.3102C675.657 94.3102 672.414 95.2916 670.025 97.2542C667.635 99.1316 666.27 101.692 665.929 104.934H693.705ZM723.863 80.7422H745.623V88.4222C748.012 85.6916 751.383 83.6009 755.735 82.1502C760.087 80.6142 764.908 79.8462 770.199 79.8462V97.1262C764.567 97.1262 759.575 97.9369 755.223 99.5583C750.956 101.18 748.012 103.612 746.391 106.854V142.182H723.863V80.7422Z" fill="white"/>
</svg>
